<?xml version="1.0" encoding="UTF-8" standalone="no"?>
<!-- Created with Inkscape (http://www.inkscape.org/) -->

<svg
   xmlns:dc="http://purl.org/dc/elements/1.1/"
   xmlns:cc="http://creativecommons.org/ns#"
   xmlns:rdf="http://www.w3.org/1999/02/22-rdf-syntax-ns#"
   xmlns:svg="http://www.w3.org/2000/svg"
   xmlns="http://www.w3.org/2000/svg"
   xmlns:sodipodi="http://sodipodi.sourceforge.net/DTD/sodipodi-0.dtd"
   xmlns:inkscape="http://www.inkscape.org/namespaces/inkscape"
   width="56.531113mm"
   height="57.957989mm"
   viewBox="0 0 200.30709 205.36295"
   id="svg2"
   version="1.1"
   inkscape:version="0.91 r13725"
   sodipodi:docname="external-label.svg">
  <defs
     id="defs4" />
  <sodipodi:namedview
     id="base"
     pagecolor="#ffffff"
     bordercolor="#666666"
     borderopacity="1.0"
     inkscape:pageopacity="0.0"
     inkscape:pageshadow="2"
     inkscape:zoom="3.959798"
     inkscape:cx="59.853056"
     inkscape:cy="101.04801"
     inkscape:document-units="px"
     inkscape:current-layer="layer1"
     showgrid="false"
     inkscape:window-width="1920"
     inkscape:window-height="1056"
     inkscape:window-x="0"
     inkscape:window-y="24"
     inkscape:window-maximized="1"
     fit-margin-top="5"
     fit-margin-right="5"
     fit-margin-bottom="5"
     fit-margin-left="5" />
  <metadata
     id="metadata7">
    <rdf:RDF>
      <cc:Work
         rdf:about="">
        <dc:format>image/svg+xml</dc:format>
        <dc:type
           rdf:resource="http://purl.org/dc/dcmitype/StillImage" />
        <dc:title />
      </cc:Work>
    </rdf:RDF>
  </metadata>
  <g
     inkscape:label="Layer 1"
     inkscape:groupmode="layer"
     id="layer1"
     transform="translate(-237.71783,-456.42422)">
    <path
       style="fill:#ffffff;fill-opacity:1;stroke:#000000;stroke-width:0.17716534;stroke-miterlimit:4;stroke-dasharray:none;stroke-opacity:0.98742137"
       d="m 259.48237,474.22934 64.7945,0 c 5.51752,0 9.95943,4.4419 9.95943,9.95942 l 0,149.83387 c 0,5.51752 -4.44191,9.95943 -9.95943,9.95943 l -64.7945,0 c -5.51752,0 -9.95942,-4.44191 -9.95942,-9.95943 l 0,-149.83387 c 0,-5.51752 4.4419,-9.95942 9.95942,-9.95942 z"
       id="rect4136"
       inkscape:connector-curvature="0" />
    <path
       inkscape:connector-curvature="0"
       id="path5605"
       d="m 267.72091,577.85007 -4.07803,0.0164 0.0423,2.1323 2.50232,-0.0385 0.007,-0.31201 0.51348,0 c 0.70641,0 1.19367,0.0859 1.46125,0.25713 0.27828,0.17125 0.41705,0.47602 0.41705,0.91485 0,0.38532 -0.0908,0.69008 -0.27281,0.91485 -0.17125,0.22477 -0.43884,0.39077 -0.80275,0.4978 l -1.38051,-0.0643 0.0102,-0.38413 -2.42001,0.0376 0.0487,2.44196 2.32436,-0.036 0.005,-0.27672 1.68546,-0.0321 c 0.42813,0.0963 0.74441,0.24582 0.94777,0.44919 0.20337,0.19266 0.30496,0.45526 0.30496,0.78706 0,0.43884 -0.16103,0.7758 -0.48213,1.01128 -0.3211,0.23548 -0.77038,0.35277 -1.34836,0.35277 -0.16055,0 -0.51898,-0.0206 -1.07555,-0.0635 l -0.0125,-0.40451 -2.37531,0.0369 -0.10035,2.13309 0.0157,0 c 0.974,0.0643 1.99642,0.0964 3.06676,0.0964 3.29661,0 4.94505,-1.01664 4.94505,-3.05029 0,-0.64219 -0.16102,-1.15588 -0.48213,-1.54121 -0.32109,-0.39602 -0.82904,-0.67931 -1.52475,-0.85057 0.50306,-0.23547 0.88794,-0.55673 1.15552,-0.96345 0.27828,-0.41742 0.41783,-0.89893 0.41783,-1.44479 0,-0.84557 -0.31051,-1.49383 -0.93131,-1.94337 -0.62078,-0.44954 -1.48218,-0.67418 -2.58462,-0.67418 z m 8.62405,2.07115 c -1.35932,0 -2.40819,0.3799 -3.14671,1.13984 -0.73853,0.75993 -1.1077,1.83027 -1.1077,3.21099 0,1.30581 0.33697,2.31749 1.01128,3.0346 0.68501,0.71713 1.64799,1.07556 2.88957,1.07556 1.35932,0 2.40819,-0.38488 3.14672,-1.15551 0.73852,-0.78134 1.10848,-1.8789 1.10848,-3.29174 0,-1.27369 -0.34273,-2.25815 -1.02774,-2.95385 -0.67431,-0.70643 -1.63232,-1.05989 -2.8739,-1.05989 z m 29.58564,0 c -1.35932,0 -2.40817,0.3799 -3.1467,1.13984 -0.73853,0.75993 -1.1077,1.83027 -1.1077,3.21099 0,1.30581 0.33697,2.31749 1.01127,3.0346 0.68502,0.71713 1.648,1.07556 2.88958,1.07556 1.35932,0 2.40818,-0.38488 3.14671,-1.15551 0.73853,-0.78134 1.1077,-1.8789 1.1077,-3.29174 0,-1.27369 -0.34194,-2.25815 -1.02696,-2.95385 -0.67429,-0.70643 -1.63231,-1.05989 -2.8739,-1.05989 z m -15.85426,0.0807 -3.77307,0.0643 0.11288,5.76348 -0.11288,2.39178 c 1.16665,0.075 2.23201,0.11289 3.19531,0.11289 1.45564,0 2.56892,-0.38566 3.33956,-1.15631 0.78133,-0.78135 1.17198,-1.89958 1.17198,-3.35523 0,-1.23088 -0.34273,-2.17318 -1.02775,-2.82608 -0.6743,-0.6636 -1.64304,-0.99481 -2.90603,-0.99481 z m 8.27912,0.0478 -3.8695,0.0165 0.1121,5.76349 -0.1121,2.39177 2.40824,0 -0.08,-2.35964 0.722,0 c 0.74924,0 1.40746,-0.13379 1.97473,-0.40137 0.56728,-0.26759 1.00661,-0.64252 1.31701,-1.12416 0.3211,-0.49236 0.48134,-1.05972 0.48134,-1.70192 0,-0.82416 -0.25685,-1.46091 -0.77061,-1.91044 -0.51376,-0.44955 -1.24136,-0.67419 -2.18325,-0.67419 z m 15.79077,0 -3.86871,0.0165 0.1121,5.76349 -0.1121,2.39177 2.40824,0 -0.0964,-2.4882 1.0591,0 c 0.37461,0.77063 0.78671,1.56762 1.23625,2.39178 l 0.33709,0.24145 c 0.73853,-0.0428 1.5206,-0.18734 2.34475,-0.43351 l 0.0321,-0.27282 c -0.79204,-0.99541 -1.44031,-1.87329 -1.94336,-2.63322 0.46025,-0.2997 0.81946,-0.6639 1.07635,-1.09203 0.25686,-0.42813 0.3849,-0.88815 0.3849,-1.3805 0,-0.80275 -0.25685,-1.41803 -0.7706,-1.84617 -0.51377,-0.43883 -1.24713,-0.6585 -2.19972,-0.6585 z m -33.43868,0.0165 0.11288,5.76349 -0.11288,2.39177 4.99365,0 0.14424,-1.81402 -0.12856,-0.1607 -2.66537,0 -0.0321,-0.65772 0.14503,-5.52282 -2.45685,0 z m 36.92562,0 -0.14503,1.79756 0.1607,0.17718 1.73406,-0.0964 0.28928,0 0.0634,3.88518 -0.1121,2.39177 2.40824,0 -0.0964,-2.63244 0.0643,-3.64451 0.28927,0 1.70191,0.0964 0.14426,-1.79836 -0.12856,-0.17638 -6.37339,0 z m -51.45661,0.32063 -2.48272,0.0385 0.0188,0.9705 2.43882,-0.0376 0.0251,-0.97129 z m 31.34401,1.36483 c 0.43884,0.0214 0.75433,0.12299 0.94698,0.30494 0.20338,0.17126 0.30497,0.44461 0.30497,0.81922 0,0.3318 -0.0694,0.59938 -0.20854,0.80275 -0.13914,0.20336 -0.35881,0.3636 -0.65851,0.48133 l -1.07555,-0.0487 0.0643,-2.31182 0.62637,-0.0478 z m 15.79077,0 c 0.43884,0.0214 0.75511,0.11225 0.94778,0.27281 0.20336,0.16055 0.30494,0.41739 0.30494,0.7706 0,0.59938 -0.28406,1.00652 -0.85135,1.22058 l -1.07555,-0.0643 0.0487,-2.1519 0.62558,-0.0478 z m -37.19137,0.0964 c 0.41743,0 0.73869,0.0751 0.96346,0.22499 0.23547,0.14985 0.40146,0.41167 0.4978,0.78628 0.0963,0.37462 0.14424,0.90482 0.14424,1.58982 0,0.55658 -0.0479,0.9844 -0.14424,1.28409 -0.0963,0.29969 -0.2516,0.5136 -0.46566,0.64204 -0.21407,0.11773 -0.51883,0.17638 -0.91485,0.17638 -0.40673,0 -0.72301,-0.0744 -0.94778,-0.2242 -0.22477,-0.14985 -0.39077,-0.4067 -0.4978,-0.77062 -0.0963,-0.3746 -0.14424,-0.90977 -0.14424,-1.60548 0,-0.54588 0.0479,-0.96871 0.14424,-1.26841 0.0963,-0.3104 0.25159,-0.5243 0.46566,-0.64203 0.21407,-0.12846 0.51386,-0.19286 0.89917,-0.19286 z m 29.58565,0 c 0.41743,0 0.73868,0.0751 0.96345,0.22499 0.23548,0.14985 0.40147,0.41167 0.4978,0.78628 0.0963,0.37462 0.14424,0.90482 0.14424,1.58982 0,0.55658 -0.0479,0.9844 -0.14424,1.28409 -0.0963,0.29969 -0.25159,0.5136 -0.46566,0.64204 -0.21407,0.11773 -0.51961,0.17638 -0.91563,0.17638 -0.40672,0 -0.72222,-0.0744 -0.94699,-0.2242 -0.22478,-0.14985 -0.39077,-0.4067 -0.4978,-0.77062 -0.0963,-0.3746 -0.14425,-0.90977 -0.14425,-1.60548 0,-0.54588 0.0479,-0.96871 0.14425,-1.26841 0.0963,-0.3104 0.25159,-0.5243 0.46566,-0.64203 0.21406,-0.12846 0.51385,-0.19286 0.89917,-0.19286 z m -15.83781,0.0643 c 0.58868,0 1.00576,0.18746 1.25194,0.56207 0.25688,0.37461 0.38569,1.01634 0.38569,1.92612 0,1.41285 -0.52443,2.11898 -1.57335,2.11898 -0.3532,0 -0.78182,-0.0371 -1.28487,-0.1121 l -0.0313,-0.81843 0.0956,-3.62883 c 0.41743,-0.032 0.80309,-0.0478 1.1563,-0.0478 z m -23.78062,2.74219 -2.30947,0.036 0.009,0.46487 -0.0235,0.50565 2.3416,-0.036 -0.0219,-0.7267 0.004,-0.24381 z"
       style="font-style:normal;font-variant:normal;font-weight:800;font-stretch:normal;font-size:40px;line-height:125%;font-family:'Alegreya Sans SC';-inkscape-font-specification:'Alegreya Sans SC, Ultra-Bold';text-align:start;letter-spacing:0px;word-spacing:0px;writing-mode:lr-tb;text-anchor:start;fill:#000000;fill-opacity:1;stroke:none;stroke-width:1px;stroke-linecap:butt;stroke-linejoin:miter;stroke-opacity:1"
       inkscape:export-xdpi="1200.2953"
       inkscape:export-ydpi="1200.2953" />
    <g
       style="font-style:normal;font-weight:normal;font-size:16.23038292px;line-height:80.00000119%;font-family:sans-serif;letter-spacing:0px;word-spacing:0px;fill:#000000;fill-opacity:1;stroke:none;stroke-width:1px;stroke-linecap:butt;stroke-linejoin:miter;stroke-opacity:1"
       id="text4867"
       transform="translate(-6,0)">
      <path
         d="m 275.10386,502.14228 -0.14607,1.63927 -6.55708,0 0.11362,-3.11623 -0.11362,-7.33614 6.622,0 0.12984,0.17854 -0.1623,1.63927 -2.49948,-0.0812 -1.88272,0.0162 -0.0487,2.5157 1.80157,0.0325 1.70419,-0.0487 0.12984,0.16231 -0.14607,1.63927 -1.85027,-0.0487 -1.67173,0.0162 -0.0162,1.11989 0.0487,1.57435 1.83403,0.0162 2.58063,-0.0974 0.12984,0.17853 z"
         style="font-style:normal;font-variant:normal;font-weight:normal;font-stretch:normal;font-size:16.23038292px;line-height:64.99999762%;font-family:'Alegreya Sans SC';-inkscape-font-specification:'Alegreya Sans SC, Normal';text-align:center;writing-mode:lr-tb;text-anchor:middle"
         id="path5139"
         inkscape:connector-curvature="0" />
      <path
         d="m 284.01054,503.78155 -2.22356,0 -3.27854,-5.08011 -0.11361,0 -0.0162,2.20733 0.0649,2.87278 -1.85027,0 0.0812,-2.4021 -0.0812,-5.79424 2.20734,0 3.27853,5.08011 0.14608,0 -0.0649,-4.99896 1.88273,-0.12984 -0.11361,5.64817 0.0811,2.59686 z"
         style="font-style:normal;font-variant:normal;font-weight:bold;font-stretch:normal;font-size:16.23038292px;line-height:80.00000119%;font-family:'Alegreya Sans SC';-inkscape-font-specification:'Alegreya Sans SC, Bold';text-align:center;writing-mode:lr-tb;text-anchor:middle"
         id="path5141"
         inkscape:connector-curvature="0" />
      <path
         d="m 290.34876,495.47159 q 1.36335,0 2.5644,0.45446 l -0.53561,1.85026 -0.17853,0 q -0.63298,-0.35707 -1.13613,-0.50314 -0.48691,-0.14608 -1.08743,-0.14608 -1.1199,0 -1.62304,0.60053 -0.48691,0.58429 -0.48691,2.04503 0,0.97382 0.21099,1.52565 0.211,0.55184 0.66545,0.79529 0.47068,0.22723 1.26597,0.22723 0.48691,0 1.02251,-0.19477 l 0,-0.51937 -0.0162,-1.29843 1.8665,-0.12984 -0.0325,1.08743 0,2.10995 q -1.59058,0.5356 -2.98639,0.5356 -2.04503,0 -3.08378,-1.03874 -1.03874,-1.05498 -1.03874,-3.00262 0,-2.14241 1.20105,-3.26231 1.20104,-1.13613 3.40838,-1.13613 z"
         style="font-style:normal;font-variant:normal;font-weight:bold;font-stretch:normal;font-size:16.23038292px;line-height:80.00000119%;font-family:'Alegreya Sans SC';-inkscape-font-specification:'Alegreya Sans SC, Bold';text-align:center;writing-mode:lr-tb;text-anchor:middle"
         id="path5143"
         inkscape:connector-curvature="0" />
      <path
         d="m 296.86576,503.78155 -2.04503,0 0.0812,-2.43456 -0.0812,-5.76178 2.07749,0 -0.11361,5.56702 0.0812,2.62932 z"
         style="font-style:normal;font-variant:normal;font-weight:bold;font-stretch:normal;font-size:16.23038292px;line-height:80.00000119%;font-family:'Alegreya Sans SC';-inkscape-font-specification:'Alegreya Sans SC, Bold';text-align:center;writing-mode:lr-tb;text-anchor:middle"
         id="path5145"
         inkscape:connector-curvature="0" />
      <path
         d="m 306.77111,503.78155 -2.22356,0 -3.27854,-5.08011 -0.11361,0 -0.0162,2.20733 0.0649,2.87278 -1.85026,0 0.0811,-2.4021 -0.0811,-5.79424 2.20733,0 3.27854,5.08011 0.14607,0 -0.0649,-4.99896 1.88273,-0.12984 -0.11362,5.64817 0.0812,2.59686 z"
         style="font-style:normal;font-variant:normal;font-weight:bold;font-stretch:normal;font-size:16.23038292px;line-height:80.00000119%;font-family:'Alegreya Sans SC';-inkscape-font-specification:'Alegreya Sans SC, Bold';text-align:center;writing-mode:lr-tb;text-anchor:middle"
         id="path5147"
         inkscape:connector-curvature="0" />
      <path
         d="m 314.91091,502.25589 -0.14608,1.52566 -5.61571,0 0.0812,-2.43456 -0.0812,-5.76178 5.69687,0 0.11361,0.1623 -0.12984,1.50943 -2.10995,-0.0812 -1.52566,0 -0.0325,1.6555 1.46073,0.0162 1.41205,-0.0487 0.11361,0.14608 -0.12984,1.54188 -1.54189,-0.0487 -1.34712,0 -0.0162,0.71414 0.0325,1.03874 1.42827,0 2.20733,-0.0649 0.12985,0.12984 z"
         style="font-style:normal;font-variant:normal;font-weight:bold;font-stretch:normal;font-size:16.23038292px;line-height:80.00000119%;font-family:'Alegreya Sans SC';-inkscape-font-specification:'Alegreya Sans SC, Bold';text-align:center;writing-mode:lr-tb;text-anchor:middle"
         id="path5149"
         inkscape:connector-curvature="0" />
      <path
         d="m 322.297,502.25589 -0.14608,1.52566 -5.61571,0 0.0811,-2.43456 -0.0811,-5.76178 5.69687,0 0.11361,0.1623 -0.12985,1.50943 -2.10994,-0.0812 -1.52566,0 -0.0325,1.6555 1.46073,0.0162 1.41205,-0.0487 0.11361,0.14608 -0.12984,1.54188 -1.54189,-0.0487 -1.34712,0 -0.0162,0.71414 0.0325,1.03874 1.42827,0 2.20733,-0.0649 0.12985,0.12984 z"
         style="font-style:normal;font-variant:normal;font-weight:bold;font-stretch:normal;font-size:16.23038292px;line-height:80.00000119%;font-family:'Alegreya Sans SC';-inkscape-font-specification:'Alegreya Sans SC, Bold';text-align:center;writing-mode:lr-tb;text-anchor:middle"
         id="path5151"
         inkscape:connector-curvature="0" />
      <path
         d="m 328.80665,500.5517 q 1.08744,1.57435 2.0288,2.75917 l -0.0162,0.22723 q -1.02252,0.30837 -1.98011,0.37329 l -0.29215,-0.19476 q -0.9089,-1.59058 -1.41204,-2.58063 l -1.24974,0 0,0.0162 0.0812,2.62932 -2.04503,0 0.0812,-2.43456 -0.0812,-5.76178 3.53823,-0.0162 q 1.37958,0 2.12618,0.64921 0.76283,0.63299 0.76283,1.81781 0,0.76282 -0.40576,1.42827 -0.40576,0.64921 -1.13613,1.08743 z m -1.67173,-0.9089 q 1.07121,-0.35707 1.07121,-1.39581 0,-0.58429 -0.34084,-0.86021 -0.34084,-0.29215 -1.07121,-0.32461 l -0.82775,0.0325 -0.0487,2.48325 1.21728,0.0649 z"
         style="font-style:normal;font-variant:normal;font-weight:bold;font-stretch:normal;font-size:16.23038292px;line-height:80.00000119%;font-family:'Alegreya Sans SC';-inkscape-font-specification:'Alegreya Sans SC, Bold';text-align:center;writing-mode:lr-tb;text-anchor:middle"
         id="path5153"
         inkscape:connector-curvature="0" />
      <path
         d="m 265.99101,506.18365 q 1.33089,0 2.64555,0.5356 l -0.35707,1.89896 -0.3246,0.12984 q -0.55184,-0.38953 -1.15236,-0.61676 -0.5843,-0.22722 -1.07121,-0.22722 -0.64921,0 -1.03874,0.35707 -0.38953,0.34083 -0.38953,0.79529 0,0.47068 0.42199,0.79528 0.43822,0.32461 1.36335,0.76283 0.89267,0.40576 1.44451,0.76283 0.56806,0.34084 0.95759,0.9089 0.40576,0.56807 0.40576,1.39581 0,0.89268 -0.48691,1.63927 -0.48691,0.73037 -1.37959,1.16859 -0.89267,0.42199 -2.06125,0.42199 -1.54189,0 -3.10001,-0.66544 l 0.30838,-2.04503 0.24346,-0.12985 q 0.64921,0.56807 1.41204,0.87644 0.77906,0.29215 1.37958,0.29215 0.71414,0 1.10367,-0.34084 0.40576,-0.35707 0.40576,-0.84398 0,-0.51937 -0.43822,-0.84398 -0.42199,-0.3246 -1.37959,-0.77905 -0.87644,-0.38953 -1.42827,-0.73037 -0.55183,-0.34084 -0.94136,-0.9089 -0.38953,-0.56807 -0.38953,-1.37959 0,-0.9089 0.48691,-1.63926 0.48691,-0.7466 1.36335,-1.16859 0.87644,-0.42199 1.99634,-0.42199 z"
         style="font-style:normal;font-variant:normal;font-weight:bold;font-stretch:normal;font-size:16.23038292px;line-height:80.00000119%;font-family:'Alegreya Sans SC';-inkscape-font-specification:'Alegreya Sans SC, Bold';text-align:center;writing-mode:lr-tb;text-anchor:middle"
         id="path5155"
         inkscape:connector-curvature="0" />
      <path
         d="m 277.46665,513.99046 q 0.0162,1.39581 -0.92513,2.15864 -0.92513,0.7466 -2.66178,0.7466 -1.68796,0 -2.58063,-0.7466 -0.89268,-0.76283 -0.84398,-2.15864 l 0.0162,-1.2822 -0.0487,-4.13875 2.04503,0 -0.0974,5.1288 q -0.0162,1.54189 1.59058,1.54189 1.62304,0 1.60681,-1.54189 l -0.0812,-5.1288 2.06126,0 -0.0649,4.17121 -0.0162,1.24974 z"
         style="font-style:normal;font-variant:normal;font-weight:bold;font-stretch:normal;font-size:16.23038292px;line-height:80.00000119%;font-family:'Alegreya Sans SC';-inkscape-font-specification:'Alegreya Sans SC, Bold';text-align:center;writing-mode:lr-tb;text-anchor:middle"
         id="path5157"
         inkscape:connector-curvature="0" />
      <path
         d="m 283.20637,508.55328 q 1.39582,0 2.14241,0.66545 0.7466,0.64921 0.7466,1.88272 0,1.42828 -0.99005,2.28849 -0.99006,0.86021 -2.64555,0.86021 l -0.82775,0 0.0812,2.51571 -2.04503,0 0.0811,-2.43456 -0.0811,-5.76179 3.53822,-0.0162 z m -0.3733,4.23613 q 0.56807,-0.17853 0.84398,-0.5356 0.27592,-0.35707 0.27592,-0.95759 0,-0.61676 -0.35707,-0.92513 -0.34084,-0.30838 -1.0712,-0.34084 l -0.81152,0.0325 -0.0487,2.67801 1.16858,0.0487 z"
         style="font-style:normal;font-variant:normal;font-weight:bold;font-stretch:normal;font-size:16.23038292px;line-height:80.00000119%;font-family:'Alegreya Sans SC';-inkscape-font-specification:'Alegreya Sans SC, Bold';text-align:center;writing-mode:lr-tb;text-anchor:middle"
         id="path5159"
         inkscape:connector-curvature="0" />
      <path
         d="m 293.45003,515.2402 -0.14608,1.52566 -5.61571,0 0.0811,-2.43456 -0.0811,-5.76179 5.69687,0 0.11361,0.16231 -0.12984,1.50942 -2.10995,-0.0811 -1.52566,0 -0.0325,1.6555 1.46073,0.0162 1.41205,-0.0487 0.11361,0.14607 -0.12984,1.54189 -1.54189,-0.0487 -1.34712,0 -0.0162,0.71414 0.0325,1.03874 1.42827,0 2.20733,-0.0649 0.12985,0.12984 z"
         style="font-style:normal;font-variant:normal;font-weight:bold;font-stretch:normal;font-size:16.23038292px;line-height:80.00000119%;font-family:'Alegreya Sans SC';-inkscape-font-specification:'Alegreya Sans SC, Bold';text-align:center;writing-mode:lr-tb;text-anchor:middle"
         id="path5161"
         inkscape:connector-curvature="0" />
      <path
         d="m 299.95968,513.53601 q 1.08744,1.57435 2.0288,2.75917 l -0.0162,0.22722 q -1.02252,0.30838 -1.98011,0.3733 l -0.29215,-0.19476 q -0.9089,-1.59058 -1.41204,-2.58064 l -1.24974,0 0,0.0162 0.0811,2.62932 -2.04503,0 0.0812,-2.43456 -0.0812,-5.76179 3.53823,-0.0162 q 1.37958,0 2.12618,0.64922 0.76283,0.63298 0.76283,1.8178 0,0.76283 -0.40576,1.42828 -0.40576,0.64921 -1.13613,1.08743 z m -1.67173,-0.9089 q 1.07121,-0.35707 1.07121,-1.39581 0,-0.5843 -0.34084,-0.86021 -0.34084,-0.29215 -1.07121,-0.32461 l -0.82775,0.0325 -0.0487,2.48325 1.21728,0.0649 z"
         style="font-style:normal;font-variant:normal;font-weight:bold;font-stretch:normal;font-size:16.23038292px;line-height:80.00000119%;font-family:'Alegreya Sans SC';-inkscape-font-specification:'Alegreya Sans SC, Bold';text-align:center;writing-mode:lr-tb;text-anchor:middle"
         id="path5163"
         inkscape:connector-curvature="0" />
      <path
         d="m 311.00344,516.76586 -2.04503,0 0.0811,-2.43456 -0.0162,-0.79529 -1.83403,-0.0162 -1.63927,0.0325 -0.0162,0.5843 0.0812,2.62932 -2.04503,0 0.0812,-2.43456 -0.0812,-5.76179 2.07749,0 -0.0649,3.24608 1.73665,0.0325 1.68796,-0.0162 -0.0487,-3.26231 2.07749,0 -0.11361,5.56703 0.0812,2.62932 z"
         style="font-style:normal;font-variant:normal;font-weight:bold;font-stretch:normal;font-size:16.23038292px;line-height:80.00000119%;font-family:'Alegreya Sans SC';-inkscape-font-specification:'Alegreya Sans SC, Bold';text-align:center;writing-mode:lr-tb;text-anchor:middle"
         id="path5165"
         inkscape:connector-curvature="0" />
      <path
         d="m 319.127,515.2402 -0.14607,1.52566 -5.61571,0 0.0811,-2.43456 -0.0811,-5.76179 5.69686,0 0.11361,0.16231 -0.12984,1.50942 -2.10995,-0.0811 -1.52566,0 -0.0325,1.6555 1.46074,0.0162 1.41204,-0.0487 0.11361,0.14607 -0.12984,1.54189 -1.54188,-0.0487 -1.34713,0 -0.0162,0.71414 0.0325,1.03874 1.42828,0 2.20733,-0.0649 0.12984,0.12984 z"
         style="font-style:normal;font-variant:normal;font-weight:bold;font-stretch:normal;font-size:16.23038292px;line-height:80.00000119%;font-family:'Alegreya Sans SC';-inkscape-font-specification:'Alegreya Sans SC, Bold';text-align:center;writing-mode:lr-tb;text-anchor:middle"
         id="path5167"
         inkscape:connector-curvature="0" />
      <path
         d="m 325.63666,513.53601 q 1.08743,1.57435 2.02879,2.75917 l -0.0162,0.22722 q -1.02251,0.30838 -1.9801,0.3733 l -0.29215,-0.19476 q -0.9089,-1.59058 -1.41204,-2.58064 l -1.24974,0 0,0.0162 0.0811,2.62932 -2.04503,0 0.0812,-2.43456 -0.0812,-5.76179 3.53822,-0.0162 q 1.37959,0 2.12618,0.64922 0.76283,0.63298 0.76283,1.8178 0,0.76283 -0.40576,1.42828 -0.40576,0.64921 -1.13612,1.08743 z m -1.67173,-0.9089 q 1.0712,-0.35707 1.0712,-1.39581 0,-0.5843 -0.34084,-0.86021 -0.34084,-0.29215 -1.0712,-0.32461 l -0.82775,0.0325 -0.0487,2.48325 1.21728,0.0649 z"
         style="font-style:normal;font-variant:normal;font-weight:bold;font-stretch:normal;font-size:16.23038292px;line-height:80.00000119%;font-family:'Alegreya Sans SC';-inkscape-font-specification:'Alegreya Sans SC, Bold';text-align:center;writing-mode:lr-tb;text-anchor:middle"
         id="path5169"
         inkscape:connector-curvature="0" />
      <path
         d="m 332.61039,508.43967 q 1.85027,0 2.85655,1.05498 1.00628,1.05497 1.00628,2.98639 0,2.10995 -1.10366,3.27853 -1.08744,1.15236 -3.08378,1.15236 -1.83403,0 -2.84031,-1.0712 -1.00629,-1.08744 -1.00629,-3.05132 0,-2.07749 1.08744,-3.21361 1.08744,-1.13613 3.08377,-1.13613 z m -0.17853,1.6555 q -1.00629,0 -1.44451,0.55183 -0.42199,0.53561 -0.42199,1.8665 0,1.0712 0.17854,1.68796 0.19476,0.60052 0.60052,0.86021 0.42199,0.25968 1.1199,0.25968 1.02251,0 1.4445,-0.5356 0.43822,-0.5356 0.43822,-1.88272 0,-1.07121 -0.19476,-1.67173 -0.19477,-0.61676 -0.60053,-0.87644 -0.40575,-0.25969 -1.11989,-0.25969 z"
         style="font-style:normal;font-variant:normal;font-weight:bold;font-stretch:normal;font-size:16.23038292px;line-height:80.00000119%;font-family:'Alegreya Sans SC';-inkscape-font-specification:'Alegreya Sans SC, Bold';text-align:center;writing-mode:lr-tb;text-anchor:middle"
         id="path5171"
         inkscape:connector-curvature="0" />
    </g>
    <g
       style="font-style:normal;font-weight:normal;font-size:12.94248199px;line-height:80.00000119%;font-family:sans-serif;letter-spacing:0px;word-spacing:0px;fill:#000000;fill-opacity:1;stroke:none;stroke-width:1px;stroke-linecap:butt;stroke-linejoin:miter;stroke-opacity:1"
       id="text4877"
       transform="translate(-6,0)">
      <path
         d="m 265.88135,528.53699 -0.0906,0.75067 -3.92158,0 0.0388,-1.94137 -0.0388,-4.50399 3.94746,0 0.0647,0.0777 -0.0777,0.75066 -1.63075,-0.0518 -1.34602,0.0129 -0.0129,1.95432 1.2813,0.0129 1.126,-0.0388 0.0647,0.0906 -0.0777,0.76361 -1.1907,-0.0388 -1.20365,0.0129 -0.0129,0.88009 0.0129,1.22954 1.26836,0.0129 1.72135,-0.0518 0.0777,0.0776 z"
         style="font-style:normal;font-variant:normal;font-weight:normal;font-stretch:normal;font-size:12.94248199px;line-height:64.99999762%;font-family:'Alegreya Sans SC';-inkscape-font-specification:'Alegreya Sans SC, Normal';text-align:center;writing-mode:lr-tb;text-anchor:middle"
         id="path5114"
         inkscape:connector-curvature="0" />
      <path
         d="m 273.49861,529.28766 -0.14237,-1.96726 -0.34944,-2.97677 -0.0777,0 -1.85077,4.21925 -0.76361,0 -1.74723,-4.21925 -0.0777,0 -0.3365,2.89912 -0.1812,2.04491 -0.82832,0 0.71184,-6.44536 1.12599,0 0.32357,0.97069 1.41073,3.46858 0.0777,0 1.47545,-3.52035 0.3365,-0.91892 1.10011,0 0.66007,6.44536 -0.86715,0 z"
         style="font-style:normal;font-variant:normal;font-weight:normal;font-stretch:normal;font-size:12.94248199px;line-height:64.99999762%;font-family:'Alegreya Sans SC';-inkscape-font-specification:'Alegreya Sans SC, Normal';text-align:center;writing-mode:lr-tb;text-anchor:middle"
         id="path5116"
         inkscape:connector-curvature="0" />
      <path
         d="m 280.36581,528.53699 -0.0906,0.75067 -3.92157,0 0.0388,-1.94137 -0.0388,-4.50399 3.94746,0 0.0647,0.0777 -0.0777,0.75066 -1.63076,-0.0518 -1.34602,0.0129 -0.0129,1.95432 1.28131,0.0129 1.12599,-0.0388 0.0647,0.0906 -0.0777,0.76361 -1.19071,-0.0388 -1.20365,0.0129 -0.0129,0.88009 0.0129,1.22954 1.26837,0.0129 1.72135,-0.0518 0.0777,0.0776 z"
         style="font-style:normal;font-variant:normal;font-weight:normal;font-stretch:normal;font-size:12.94248199px;line-height:64.99999762%;font-family:'Alegreya Sans SC';-inkscape-font-specification:'Alegreya Sans SC, Normal';text-align:center;writing-mode:lr-tb;text-anchor:middle"
         id="path5118"
         inkscape:connector-curvature="0" />
      <path
         d="m 284.95453,526.68622 q 0.78949,1.20365 1.74723,2.36847 l -0.0129,0.12943 q -0.54358,0.16825 -0.89303,0.19414 l -0.16825,-0.10354 q -0.98363,-1.48839 -1.48839,-2.34259 l -1.21659,0.0129 0,0.32356 0.0259,2.01903 -0.95774,0 0.0388,-1.94137 -0.0388,-4.50399 2.20022,-0.0129 q 1.02246,0 1.56604,0.47887 0.55653,0.47887 0.55653,1.38485 0,0.66006 -0.36239,1.17776 -0.34945,0.5177 -0.99657,0.81538 z m -0.80244,-0.50476 q 1.15188,-0.32356 1.15188,-1.41073 0,-0.56947 -0.3365,-0.8542 -0.3365,-0.28474 -1.02246,-0.31062 l -0.99657,0.0129 -0.0129,2.52379 1.21659,0.0388 z"
         style="font-style:normal;font-variant:normal;font-weight:normal;font-stretch:normal;font-size:12.94248199px;line-height:64.99999762%;font-family:'Alegreya Sans SC';-inkscape-font-specification:'Alegreya Sans SC, Normal';text-align:center;writing-mode:lr-tb;text-anchor:middle"
         id="path5120"
         inkscape:connector-curvature="0" />
      <path
         d="m 291.08057,522.77759 q 1.00951,0 2.03197,0.44004 l -0.32356,0.93186 -0.11649,0 q -0.47887,-0.31062 -0.88009,-0.4271 -0.40121,-0.12942 -0.86714,-0.12942 -1.10011,0 -1.65664,0.62124 -0.54358,0.62123 -0.54358,1.94137 0,1.26836 0.50475,1.83783 0.50476,0.55653 1.60487,0.55653 0.6083,0 1.34602,-0.27179 l 0,-0.64713 -0.0129,-0.91892 0.89303,-0.0647 0,2.32965 q -1.30719,0.38827 -2.26494,0.38827 -1.52721,0 -2.3167,-0.81537 -0.77655,-0.82832 -0.77655,-2.35553 0,-1.65664 0.88009,-2.53673 0.89303,-0.88009 2.4979,-0.88009 z"
         style="font-style:normal;font-variant:normal;font-weight:normal;font-stretch:normal;font-size:12.94248199px;line-height:64.99999762%;font-family:'Alegreya Sans SC';-inkscape-font-specification:'Alegreya Sans SC, Normal';text-align:center;writing-mode:lr-tb;text-anchor:middle"
         id="path5122"
         inkscape:connector-curvature="0" />
      <path
         d="m 299.09702,528.53699 -0.0906,0.75067 -3.92157,0 0.0388,-1.94137 -0.0388,-4.50399 3.94746,0 0.0647,0.0777 -0.0777,0.75066 -1.63076,-0.0518 -1.34601,0.0129 -0.0129,1.95432 1.28131,0.0129 1.12599,-0.0388 0.0647,0.0906 -0.0777,0.76361 -1.19071,-0.0388 -1.20365,0.0129 -0.0129,0.88009 0.0129,1.22954 1.26837,0.0129 1.72135,-0.0518 0.0777,0.0776 z"
         style="font-style:normal;font-variant:normal;font-weight:normal;font-stretch:normal;font-size:12.94248199px;line-height:64.99999762%;font-family:'Alegreya Sans SC';-inkscape-font-specification:'Alegreya Sans SC, Normal';text-align:center;writing-mode:lr-tb;text-anchor:middle"
         id="path5124"
         inkscape:connector-curvature="0" />
      <path
         d="m 306.0801,529.28766 -1.0354,0 -3.39093,-4.91814 -0.0647,0 -0.0129,2.76969 0.0259,2.14845 -0.88009,0 0.0388,-1.90255 -0.0259,-4.54281 1.02246,0 3.39093,4.91815 0.0906,0 -0.0259,-4.87932 0.89303,-0.0647 -0.0388,4.54281 0.0129,1.92843 z"
         style="font-style:normal;font-variant:normal;font-weight:normal;font-stretch:normal;font-size:12.94248199px;line-height:64.99999762%;font-family:'Alegreya Sans SC';-inkscape-font-specification:'Alegreya Sans SC, Normal';text-align:center;writing-mode:lr-tb;text-anchor:middle"
         id="path5126"
         inkscape:connector-curvature="0" />
      <path
         d="m 310.94263,522.77759 q 1.07422,0 1.86372,0.45299 l -0.1812,0.89303 -0.11648,0.0388 q -0.68595,-0.58242 -1.66958,-0.58242 -1.96726,0 -1.96726,2.44613 0,1.22954 0.50476,1.87666 0.50476,0.64713 1.4625,0.64713 0.98363,0 1.78606,-0.59536 l 0.11648,0.0388 -0.0906,0.89303 q -0.88009,0.47887 -1.85078,0.47887 -1.42367,0 -2.18728,-0.84126 -0.7636,-0.8542 -0.7636,-2.42024 0,-1.59193 0.80243,-2.45907 0.81538,-0.86715 2.29082,-0.86715 z"
         style="font-style:normal;font-variant:normal;font-weight:normal;font-stretch:normal;font-size:12.94248199px;line-height:64.99999762%;font-family:'Alegreya Sans SC';-inkscape-font-specification:'Alegreya Sans SC, Normal';text-align:center;writing-mode:lr-tb;text-anchor:middle"
         id="path5128"
         inkscape:connector-curvature="0" />
      <path
         d="m 316.7259,529.28766 -0.97069,0 0.0388,-1.85078 0,-0.38827 -2.18728,-4.20631 1.04834,0 0.14237,0.37533 1.43661,2.7697 0.0647,0 1.57899,-2.73087 0.18119,-0.41416 1.02246,0 -2.38142,4.19337 -0.0129,0.40121 0.0388,1.85078 z"
         style="font-style:normal;font-variant:normal;font-weight:normal;font-stretch:normal;font-size:12.94248199px;line-height:64.99999762%;font-family:'Alegreya Sans SC';-inkscape-font-specification:'Alegreya Sans SC, Normal';text-align:center;writing-mode:lr-tb;text-anchor:middle"
         id="path5130"
         inkscape:connector-curvature="0" />
      <path
         d="m 324.78542,525.8579 q 1.3719,1.68252 2.91206,3.20974 l -0.0259,0.14236 q -0.40121,0.12943 -0.93186,0.19414 l -0.15531,-0.0647 q -1.65663,-1.86372 -2.86028,-3.41682 l 0,-0.0776 2.2261,-2.43319 0.4271,-0.56947 1.15189,-0.0129 -2.74381,3.02854 z m -1.13894,3.42976 -0.95774,0 0.0388,-1.94137 -0.0388,-4.50399 0.97068,0 -0.0388,4.42633 0.0259,2.01903 z"
         style="font-style:normal;font-variant:normal;font-weight:normal;font-stretch:normal;font-size:12.94248199px;line-height:64.99999762%;font-family:'Alegreya Sans SC';-inkscape-font-specification:'Alegreya Sans SC, Normal';text-align:center;writing-mode:lr-tb;text-anchor:middle"
         id="path5132"
         inkscape:connector-curvature="0" />
      <path
         d="m 329.99133,529.28766 -0.95774,0 0.0388,-1.94137 -0.0388,-4.50399 0.97069,0 -0.0388,4.42633 0.0259,2.01903 z"
         style="font-style:normal;font-variant:normal;font-weight:normal;font-stretch:normal;font-size:12.94248199px;line-height:64.99999762%;font-family:'Alegreya Sans SC';-inkscape-font-specification:'Alegreya Sans SC, Normal';text-align:center;writing-mode:lr-tb;text-anchor:middle"
         id="path5134"
         inkscape:connector-curvature="0" />
      <path
         d="m 336.40777,523.73533 -1.20365,-0.0906 -0.64713,0 -0.0388,3.62389 0.0388,2.01903 -0.97068,0 0.0388,-1.94137 -0.0259,-3.70155 -0.64713,0 -1.22953,0.0906 -0.0777,-0.0906 0.0777,-0.80244 4.69812,0 0.0518,0.0777 -0.0647,0.81537 z"
         style="font-style:normal;font-variant:normal;font-weight:normal;font-stretch:normal;font-size:12.94248199px;line-height:64.99999762%;font-family:'Alegreya Sans SC';-inkscape-font-specification:'Alegreya Sans SC, Normal';text-align:center;writing-mode:lr-tb;text-anchor:middle"
         id="path5136"
         inkscape:connector-curvature="0" />
    </g>
    <g
       style="font-style:normal;font-weight:normal;font-size:7.29436255px;line-height:80.00000119%;font-family:sans-serif;letter-spacing:0px;word-spacing:0px;fill:#000000;fill-opacity:1;stroke:none;stroke-width:1px;stroke-linecap:butt;stroke-linejoin:miter;stroke-opacity:1"
       id="text4899"
       transform="translate(-6,0)">
      <path
         d="m 265.8112,636.94092 -0.53978,0 0.0219,-1.09416 -0.007,-0.49601 -1.97677,0.007 -0.007,0.44496 0.0146,1.13792 -0.53979,0 0.0219,-1.09416 -0.0219,-2.53843 0.54708,0 -0.0146,1.56099 0.98474,0.007 0.99203,-0.007 -0.0146,-1.56099 0.54707,0 -0.0219,2.49467 0.0146,1.13792 z"
         style="font-style:normal;font-variant:normal;font-weight:normal;font-stretch:normal;font-size:7.29436255px;line-height:64.99999762%;font-family:'Alegreya Sans SC';-inkscape-font-specification:'Alegreya Sans SC, Normal';text-align:center;writing-mode:lr-tb;text-anchor:middle"
         id="path5067"
         inkscape:connector-curvature="0" />
      <path
         d="m 269.38327,633.81164 -0.67837,-0.0511 -0.36472,0 -0.0219,2.04242 0.0219,1.13792 -0.54708,0 0.0219,-1.09416 -0.0146,-2.08618 -0.36471,0 -0.69297,0.0511 -0.0438,-0.0511 0.0438,-0.45225 2.64786,0 0.0292,0.0438 -0.0365,0.45955 z"
         style="font-style:normal;font-variant:normal;font-weight:normal;font-stretch:normal;font-size:7.29436255px;line-height:64.99999762%;font-family:'Alegreya Sans SC';-inkscape-font-specification:'Alegreya Sans SC, Normal';text-align:center;writing-mode:lr-tb;text-anchor:middle"
         id="path5069"
         inkscape:connector-curvature="0" />
      <path
         d="m 272.57455,633.81164 -0.67837,-0.0511 -0.36472,0 -0.0219,2.04242 0.0219,1.13792 -0.54708,0 0.0219,-1.09416 -0.0146,-2.08618 -0.36472,0 -0.69296,0.0511 -0.0438,-0.0511 0.0438,-0.45225 2.64785,0 0.0292,0.0438 -0.0365,0.45955 z"
         style="font-style:normal;font-variant:normal;font-weight:normal;font-stretch:normal;font-size:7.29436255px;line-height:64.99999762%;font-family:'Alegreya Sans SC';-inkscape-font-specification:'Alegreya Sans SC, Normal';text-align:center;writing-mode:lr-tb;text-anchor:middle"
         id="path5071"
         inkscape:connector-curvature="0" />
      <path
         d="m 274.74463,633.30103 q 0.57625,0 0.88262,0.27719 0.31365,0.27718 0.31365,0.80238 0,0.61272 -0.39389,0.96285 -0.3866,0.34284 -1.07227,0.34284 l -0.44496,0 0,0.11671 0.0146,1.13792 -0.53978,0 0.0219,-1.09416 -0.0219,-2.53843 1.24004,-0.007 z m -0.0948,1.96218 q 0.72214,-0.124 0.72214,-0.83885 0,-0.65649 -0.7732,-0.69296 l -0.55437,0.007 -0.007,1.50994 0.61273,0.0146 z"
         style="font-style:normal;font-variant:normal;font-weight:normal;font-stretch:normal;font-size:7.29436255px;line-height:64.99999762%;font-family:'Alegreya Sans SC';-inkscape-font-specification:'Alegreya Sans SC, Normal';text-align:center;writing-mode:lr-tb;text-anchor:middle"
         id="path5073"
         inkscape:connector-curvature="0" />
      <path
         d="m 277.07005,636.29901 q 0.14589,0 0.23342,0.0875 0.0875,0.0875 0.0875,0.24071 0,0.16048 -0.0948,0.2553 -0.0875,0.0948 -0.24801,0.0948 -0.32095,0 -0.32095,-0.33554 0,-0.15318 0.0875,-0.24801 0.0948,-0.0948 0.2553,-0.0948 z m 0,-1.96218 q 0.14589,0 0.23342,0.0875 0.0875,0.0875 0.0875,0.24072 0,0.16047 -0.0948,0.2553 -0.0875,0.0948 -0.24801,0.0948 -0.32095,0 -0.32095,-0.33554 0,-0.15319 0.0875,-0.24801 0.0948,-0.0948 0.2553,-0.0948 z"
         style="font-style:normal;font-variant:normal;font-weight:normal;font-stretch:normal;font-size:7.29436255px;line-height:64.99999762%;font-family:'Alegreya Sans SC';-inkscape-font-specification:'Alegreya Sans SC, Normal';text-align:center;writing-mode:lr-tb;text-anchor:middle"
         id="path5075"
         inkscape:connector-curvature="0" />
      <path
         d="m 278.52539,637.76518 -0.40119,0 -0.0438,-0.0584 1.49535,-5.71149 0.40119,0 0.0438,0.0656 -1.49534,5.70419 z"
         style="font-style:normal;font-variant:normal;font-weight:normal;font-stretch:normal;font-size:7.29436255px;line-height:64.99999762%;font-family:'Alegreya Sans SC';-inkscape-font-specification:'Alegreya Sans SC, Normal';text-align:center;writing-mode:lr-tb;text-anchor:middle"
         id="path5077"
         inkscape:connector-curvature="0" />
      <path
         d="m 280.61967,637.76518 -0.40119,0 -0.0438,-0.0584 1.49535,-5.71149 0.40119,0 0.0438,0.0656 -1.49534,5.70419 z"
         style="font-style:normal;font-variant:normal;font-weight:normal;font-stretch:normal;font-size:7.29436255px;line-height:64.99999762%;font-family:'Alegreya Sans SC';-inkscape-font-specification:'Alegreya Sans SC, Normal';text-align:center;writing-mode:lr-tb;text-anchor:middle"
         id="path5079"
         inkscape:connector-curvature="0" />
      <path
         d="m 284.47189,635.05168 q 0.80967,0.16047 0.80967,0.86073 0,1.05039 -1.60476,1.05039 -0.47413,0 -0.91179,-0.0219 l 0.0219,-1.09416 -0.0219,-2.53843 1.13792,-0.007 q 0.54707,0 0.84614,0.23342 0.30637,0.22613 0.30637,0.6492 0,0.62002 -0.58355,0.86803 z m 0.007,-0.80238 q 0,-0.26989 -0.17506,-0.3939 -0.17507,-0.124 -0.56167,-0.124 l -0.44496,0 -0.007,1.12333 0.6492,0.0219 q 0.53978,-0.10941 0.53978,-0.62731 z m -0.73673,2.29772 q 0.97745,0 0.97745,-0.6492 0,-0.50331 -0.70756,-0.60543 l -0.72214,0.007 -0.007,0.50331 0.0146,0.72214 q 0.22613,0.0219 0.44496,0.0219 z"
         style="font-style:normal;font-variant:normal;font-weight:normal;font-stretch:normal;font-size:7.29436255px;line-height:64.99999762%;font-family:'Alegreya Sans SC';-inkscape-font-specification:'Alegreya Sans SC, Normal';text-align:center;writing-mode:lr-tb;text-anchor:middle"
         id="path5081"
         inkscape:connector-curvature="0" />
      <path
         d="m 287.69942,633.26456 q 0.79508,0 1.21815,0.46684 0.43037,0.46684 0.43037,1.32028 0,0.92638 -0.45954,1.43699 -0.45225,0.50331 -1.2984,0.50331 -0.78779,0 -1.21816,-0.47414 -0.43037,-0.48142 -0.43037,-1.36404 0,-0.9045 0.45955,-1.39322 0.45954,-0.49602 1.2984,-0.49602 z m -0.0511,0.45954 q -0.57626,0 -0.86074,0.32825 -0.27718,0.32825 -0.27718,1.0358 0,0.75861 0.27718,1.10145 0.27719,0.34283 0.84615,0.34283 0.58355,0 0.86803,-0.33554 0.28448,-0.33554 0.28448,-1.05039 0,-0.73673 -0.28448,-1.07956 -0.27719,-0.34284 -0.85344,-0.34284 z"
         style="font-style:normal;font-variant:normal;font-weight:normal;font-stretch:normal;font-size:7.29436255px;line-height:64.99999762%;font-family:'Alegreya Sans SC';-inkscape-font-specification:'Alegreya Sans SC, Normal';text-align:center;writing-mode:lr-tb;text-anchor:middle"
         id="path5083"
         inkscape:connector-curvature="0" />
      <path
         d="m 292.24848,636.94092 -1.93301,0 0.0219,-1.09416 -0.0219,-2.53843 0.54708,0 -0.0219,2.49467 0.0146,0.67837 1.40052,0 0.0292,0.0511 -0.0365,0.40849 z"
         style="font-style:normal;font-variant:normal;font-weight:normal;font-stretch:normal;font-size:7.29436255px;line-height:64.99999762%;font-family:'Alegreya Sans SC';-inkscape-font-specification:'Alegreya Sans SC, Normal';text-align:center;writing-mode:lr-tb;text-anchor:middle"
         id="path5085"
         inkscape:connector-curvature="0" />
      <path
         d="m 294.50209,633.27915 q 0.83156,0 1.26922,0.44495 0.44496,0.44496 0.44496,1.27652 0,0.95556 -0.48143,1.46616 -0.48143,0.51061 -1.37863,0.51061 -0.69297,0 -1.27652,-0.0365 l 0.0219,-1.09416 -0.0219,-2.53843 1.4224,-0.0292 z m -0.0584,3.25328 q 0.58355,0 0.8972,-0.35013 0.32096,-0.35742 0.32096,-1.07227 0,-1.37134 -1.20357,-1.37134 -0.35743,0 -0.83886,0.0292 l -0.0146,2.03513 0.007,0.68567 q 0.48143,0.0438 0.83156,0.0438 z"
         style="font-style:normal;font-variant:normal;font-weight:normal;font-stretch:normal;font-size:7.29436255px;line-height:64.99999762%;font-family:'Alegreya Sans SC';-inkscape-font-specification:'Alegreya Sans SC, Normal';text-align:center;writing-mode:lr-tb;text-anchor:middle"
         id="path5087"
         inkscape:connector-curvature="0" />
      <path
         d="m 298.45131,633.30103 q 0.57625,0 0.88261,0.27719 0.31366,0.27718 0.31366,0.80238 0,0.61272 -0.39389,0.96285 -0.3866,0.34284 -1.07227,0.34284 l -0.44496,0 0,0.11671 0.0146,1.13792 -0.53979,0 0.0219,-1.09416 -0.0219,-2.53843 1.24005,-0.007 z m -0.0948,1.96218 q 0.72214,-0.124 0.72214,-0.83885 0,-0.65649 -0.7732,-0.69296 l -0.55437,0.007 -0.007,1.50994 0.61273,0.0146 z"
         style="font-style:normal;font-variant:normal;font-weight:normal;font-stretch:normal;font-size:7.29436255px;line-height:64.99999762%;font-family:'Alegreya Sans SC';-inkscape-font-specification:'Alegreya Sans SC, Normal';text-align:center;writing-mode:lr-tb;text-anchor:middle"
         id="path5089"
         inkscape:connector-curvature="0" />
      <path
         d="m 302.04594,633.26456 q 0.79509,0 1.21816,0.46684 0.43037,0.46684 0.43037,1.32028 0,0.92638 -0.45955,1.43699 -0.45225,0.50331 -1.29839,0.50331 -0.78779,0 -1.21816,-0.47414 -0.43037,-0.48142 -0.43037,-1.36404 0,-0.9045 0.45955,-1.39322 0.45954,-0.49602 1.29839,-0.49602 z m -0.0511,0.45954 q -0.57625,0 -0.86073,0.32825 -0.27719,0.32825 -0.27719,1.0358 0,0.75861 0.27719,1.10145 0.27718,0.34283 0.84614,0.34283 0.58355,0 0.86803,-0.33554 0.28448,-0.33554 0.28448,-1.05039 0,-0.73673 -0.28448,-1.07956 -0.27718,-0.34284 -0.85344,-0.34284 z"
         style="font-style:normal;font-variant:normal;font-weight:normal;font-stretch:normal;font-size:7.29436255px;line-height:64.99999762%;font-family:'Alegreya Sans SC';-inkscape-font-specification:'Alegreya Sans SC, Normal';text-align:center;writing-mode:lr-tb;text-anchor:middle"
         id="path5091"
         inkscape:connector-curvature="0" />
      <path
         d="m 306.347,635.47475 q 0.44495,0.67838 0.98474,1.33487 l -0.007,0.0729 q -0.30636,0.0948 -0.50331,0.10942 l -0.0948,-0.0584 q -0.55438,-0.83885 -0.83886,-1.32028 l -0.68567,0.007 0,0.18236 0.0146,1.13792 -0.53978,0 0.0219,-1.09416 -0.0219,-2.53843 1.24004,-0.007 q 0.57626,0 0.88262,0.26989 0.31366,0.26989 0.31366,0.7805 0,0.37201 -0.20425,0.66379 -0.19694,0.29177 -0.56166,0.45954 z m -0.45225,-0.28448 q 0.6492,-0.18236 0.6492,-0.79508 0,-0.32096 -0.18966,-0.48143 -0.18965,-0.16048 -0.57625,-0.17507 l -0.56167,0.007 -0.007,1.4224 0.68567,0.0219 z"
         style="font-style:normal;font-variant:normal;font-weight:normal;font-stretch:normal;font-size:7.29436255px;line-height:64.99999762%;font-family:'Alegreya Sans SC';-inkscape-font-specification:'Alegreya Sans SC, Normal';text-align:center;writing-mode:lr-tb;text-anchor:middle"
         id="path5093"
         inkscape:connector-curvature="0" />
      <path
         d="m 310.28584,633.81164 -0.67838,-0.0511 -0.36472,0 -0.0219,2.04242 0.0219,1.13792 -0.54707,0 0.0219,-1.09416 -0.0146,-2.08618 -0.36472,0 -0.69296,0.0511 -0.0438,-0.0511 0.0438,-0.45225 2.64785,0 0.0292,0.0438 -0.0365,0.45955 z"
         style="font-style:normal;font-variant:normal;font-weight:normal;font-stretch:normal;font-size:7.29436255px;line-height:64.99999762%;font-family:'Alegreya Sans SC';-inkscape-font-specification:'Alegreya Sans SC, Normal';text-align:center;writing-mode:lr-tb;text-anchor:middle"
         id="path5095"
         inkscape:connector-curvature="0" />
      <path
         d="m 310.79291,636.29901 q 0.14589,0 0.23342,0.0875 0.0875,0.0875 0.0875,0.24071 0,0.16048 -0.0948,0.2553 -0.0875,0.0948 -0.24801,0.0948 -0.32095,0 -0.32095,-0.33554 0,-0.15318 0.0875,-0.24801 0.0948,-0.0948 0.2553,-0.0948 z"
         style="font-style:normal;font-variant:normal;font-weight:normal;font-stretch:normal;font-size:7.29436255px;line-height:64.99999762%;font-family:'Alegreya Sans SC';-inkscape-font-specification:'Alegreya Sans SC, Normal';text-align:center;writing-mode:lr-tb;text-anchor:middle"
         id="path5097"
         inkscape:connector-curvature="0" />
      <path
         d="m 313.37181,633.27185 q 0.60543,0 1.05039,0.25531 l -0.10212,0.50331 -0.0657,0.0219 q -0.3866,-0.32825 -0.94098,-0.32825 -1.10874,0 -1.10874,1.37864 0,0.69296 0.28448,1.05768 0.28448,0.36472 0.82426,0.36472 0.55438,0 1.00663,-0.33554 l 0.0657,0.0219 -0.0511,0.50331 q -0.49601,0.26989 -1.04309,0.26989 -0.80238,0 -1.23275,-0.47413 -0.43036,-0.48143 -0.43036,-1.36405 0,-0.8972 0.45225,-1.38592 0.45954,-0.48873 1.2911,-0.48873 z"
         style="font-style:normal;font-variant:normal;font-weight:normal;font-stretch:normal;font-size:7.29436255px;line-height:64.99999762%;font-family:'Alegreya Sans SC';-inkscape-font-specification:'Alegreya Sans SC, Normal';text-align:center;writing-mode:lr-tb;text-anchor:middle"
         id="path5099"
         inkscape:connector-curvature="0" />
      <path
         d="m 316.69166,633.26456 q 0.79508,0 1.21816,0.46684 0.43036,0.46684 0.43036,1.32028 0,0.92638 -0.45954,1.43699 -0.45225,0.50331 -1.2984,0.50331 -0.78779,0 -1.21816,-0.47414 -0.43036,-0.48142 -0.43036,-1.36404 0,-0.9045 0.45954,-1.39322 0.45955,-0.49602 1.2984,-0.49602 z m -0.0511,0.45954 q -0.57626,0 -0.86074,0.32825 -0.27718,0.32825 -0.27718,1.0358 0,0.75861 0.27718,1.10145 0.27719,0.34283 0.84615,0.34283 0.58355,0 0.86803,-0.33554 0.28448,-0.33554 0.28448,-1.05039 0,-0.73673 -0.28448,-1.07956 -0.27719,-0.34284 -0.85344,-0.34284 z"
         style="font-style:normal;font-variant:normal;font-weight:normal;font-stretch:normal;font-size:7.29436255px;line-height:64.99999762%;font-family:'Alegreya Sans SC';-inkscape-font-specification:'Alegreya Sans SC, Normal';text-align:center;writing-mode:lr-tb;text-anchor:middle"
         id="path5101"
         inkscape:connector-curvature="0" />
      <path
         d="m 322.69959,636.94092 -0.0802,-1.10875 -0.19695,-1.6777 -0.0438,0 -1.0431,2.37796 -0.43036,0 -0.98474,-2.37796 -0.0438,0 -0.18965,1.63394 -0.10212,1.15251 -0.46684,0 0.40119,-3.63259 0.63461,0 0.18236,0.54707 0.79508,1.95489 0.0438,0 0.83155,-1.98406 0.18966,-0.5179 0.62002,0 0.37201,3.63259 -0.48872,0 z"
         style="font-style:normal;font-variant:normal;font-weight:normal;font-stretch:normal;font-size:7.29436255px;line-height:64.99999762%;font-family:'Alegreya Sans SC';-inkscape-font-specification:'Alegreya Sans SC, Normal';text-align:center;writing-mode:lr-tb;text-anchor:middle"
         id="path5103"
         inkscape:connector-curvature="0" />
      <path
         d="m 324.25762,637.76518 -0.40119,0 -0.0438,-0.0584 1.49535,-5.71149 0.40119,0 0.0438,0.0656 -1.49534,5.70419 z"
         style="font-style:normal;font-variant:normal;font-weight:normal;font-stretch:normal;font-size:7.29436255px;line-height:64.99999762%;font-family:'Alegreya Sans SC';-inkscape-font-specification:'Alegreya Sans SC, Normal';text-align:center;writing-mode:lr-tb;text-anchor:middle"
         id="path5105"
         inkscape:connector-curvature="0" />
      <path
         d="m 328.66421,636.51784 -0.0511,0.42308 -2.21019,0 0.0219,-1.09416 -0.0219,-2.53843 2.22478,0 0.0365,0.0438 -0.0438,0.42307 -0.91909,-0.0292 -0.75862,0.007 -0.007,1.10145 0.72214,0.007 0.63461,-0.0219 0.0365,0.0511 -0.0438,0.43037 -0.67108,-0.0219 -0.67838,0.007 -0.007,0.49602 0.007,0.69296 0.71485,0.007 0.97015,-0.0292 0.0438,0.0438 z"
         style="font-style:normal;font-variant:normal;font-weight:normal;font-stretch:normal;font-size:7.29436255px;line-height:64.99999762%;font-family:'Alegreya Sans SC';-inkscape-font-specification:'Alegreya Sans SC, Normal';text-align:center;writing-mode:lr-tb;text-anchor:middle"
         id="path5107"
         inkscape:connector-curvature="0" />
      <path
         d="m 330.76168,635.00791 q 0.77321,0.94827 1.64124,1.809 l -0.0146,0.0802 q -0.22613,0.0729 -0.5252,0.10942 l -0.0875,-0.0365 q -0.93368,-1.05039 -1.61205,-1.92572 l 0,-0.0438 1.25463,-1.37134 0.24071,-0.32095 0.6492,-0.007 -1.54641,1.70688 z m -0.6419,1.93301 -0.53978,0 0.0219,-1.09416 -0.0219,-2.53843 0.54707,0 -0.0219,2.49467 0.0146,1.13792 z"
         style="font-style:normal;font-variant:normal;font-weight:normal;font-stretch:normal;font-size:7.29436255px;line-height:64.99999762%;font-family:'Alegreya Sans SC';-inkscape-font-specification:'Alegreya Sans SC, Normal';text-align:center;writing-mode:lr-tb;text-anchor:middle"
         id="path5109"
         inkscape:connector-curvature="0" />
      <path
         d="m 334.17716,633.27915 q 0.43766,0 0.71485,0.22612 0.28448,0.21883 0.28448,0.58355 0,0.29178 -0.20425,0.65649 -0.20424,0.35743 -0.64919,0.87533 l -0.73673,0.83885 0.0146,0.0292 1.34946,0 0.61273,-0.0438 0.0438,0.0365 -0.0802,0.48873 -0.74403,-0.0292 -1.63394,0 -0.26989,0.0146 -0.0365,-0.0292 0,-0.36472 1.01392,-1.10145 q 0.39389,-0.43766 0.57625,-0.72214 0.18236,-0.29177 0.18236,-0.5106 0,-0.19695 -0.14589,-0.32096 -0.14588,-0.1313 -0.40848,-0.1313 -0.2626,0 -0.5252,0.1313 -0.2553,0.1313 -0.46683,0.36472 l -0.0729,0 -0.0948,-0.44495 q 0.60543,-0.54708 1.27651,-0.54708 z"
         style="font-style:normal;font-variant:normal;font-weight:normal;font-stretch:normal;font-size:7.29436255px;line-height:64.99999762%;font-family:'Alegreya Sans SC';-inkscape-font-specification:'Alegreya Sans SC, Normal';text-align:center;writing-mode:lr-tb;text-anchor:middle"
         id="path5111"
         inkscape:connector-curvature="0" />
    </g>
    <g
       style="font-style:normal;font-variant:normal;font-weight:500;font-stretch:normal;font-size:7.29437447px;line-height:89.99999762%;font-family:'Alegreya Sans SC';-inkscape-font-specification:'Alegreya Sans SC, Medium';text-align:center;letter-spacing:0px;word-spacing:0px;writing-mode:lr-tb;text-anchor:middle;fill:#000000;fill-opacity:1;stroke:none;stroke-width:1px;stroke-linecap:butt;stroke-linejoin:miter;stroke-opacity:1"
       id="text4909"
       transform="translate(-6,0)">
      <path
         d="m 275.93479,620.94092 -0.10941,-0.5252 -0.20424,-0.6492 -0.99204,-0.0219 -0.89721,0.0219 -0.21883,0.61273 -0.11671,0.56167 -0.75132,0 1.67041,-4.68299 0.88262,0 1.50994,4.68299 -0.77321,0 z m -1.17439,-3.94626 -0.0511,0 -0.76591,2.15914 0.73673,0.0146 0.75132,-0.0146 -0.67108,-2.15914 z"
         style="font-style:normal;font-variant:normal;font-weight:500;font-stretch:normal;font-size:7.29437447px;line-height:89.99999762%;font-family:'Alegreya Sans SC';-inkscape-font-specification:'Alegreya Sans SC, Medium';text-align:center;writing-mode:lr-tb;text-anchor:middle"
         id="path5014"
         inkscape:connector-curvature="0" />
      <path
         d="m 280.12211,617.24267 q 0.59814,0 1.04309,0.23342 l -0.1313,0.62002 -0.0657,0.0219 q -0.3793,-0.29907 -0.91179,-0.29907 -1.00663,0 -1.00663,1.25463 0,0.65649 0.2626,0.99933 0.2626,0.33554 0.76591,0.33554 0.5252,0 0.95556,-0.29907 l 0.0729,0.0365 -0.0584,0.62002 q -0.48872,0.22613 -1.00662,0.22613 -0.83885,0 -1.28381,-0.48143 -0.44496,-0.48143 -0.44496,-1.37134 0,-0.9118 0.46684,-1.40052 0.47414,-0.49602 1.34217,-0.49602 z"
         style="font-style:normal;font-variant:normal;font-weight:500;font-stretch:normal;font-size:7.29437447px;line-height:89.99999762%;font-family:'Alegreya Sans SC';-inkscape-font-specification:'Alegreya Sans SC, Medium';text-align:center;writing-mode:lr-tb;text-anchor:middle"
         id="path5016"
         inkscape:connector-curvature="0" />
      <path
         d="m 284.20023,620.94092 -0.0948,-0.45225 -0.13129,-0.40119 -0.81697,-0.007 -0.72944,0.007 -0.13859,0.36471 -0.10213,0.48873 -0.69296,0 1.36405,-3.65448 0.81697,0 1.23275,3.65448 -0.70756,0 z m -0.92638,-2.99799 -0.0511,0 -0.59085,1.59747 0.57626,0.007 0.58355,-0.007 -0.5179,-1.59747 z"
         style="font-style:normal;font-variant:normal;font-weight:500;font-stretch:normal;font-size:7.29437447px;line-height:89.99999762%;font-family:'Alegreya Sans SC';-inkscape-font-specification:'Alegreya Sans SC, Medium';text-align:center;writing-mode:lr-tb;text-anchor:middle"
         id="path5018"
         inkscape:connector-curvature="0" />
      <path
         d="m 287.62517,619.48204 q 0.42307,0.63461 0.95556,1.29111 l -0.007,0.0875 q -0.37931,0.10942 -0.66379,0.1313 l -0.10942,-0.0657 q -0.53249,-0.86074 -0.75132,-1.25463 l -0.6419,0.007 0,0.10212 0.0292,1.15981 -0.70026,0 0.0292,-1.09416 -0.0292,-2.56032 1.38593,-0.007 q 0.59084,0 0.91179,0.28448 0.32825,0.27719 0.32825,0.7878 0,0.35742 -0.19695,0.64919 -0.18965,0.29178 -0.53978,0.48143 z m -0.57626,-0.34283 q 0.57626,-0.16777 0.57626,-0.72215 0,-0.29906 -0.17507,-0.43766 -0.17506,-0.14589 -0.53249,-0.16047 l -0.48142,0.0146 -0.0219,1.28381 0.63461,0.0219 z"
         style="font-style:normal;font-variant:normal;font-weight:500;font-stretch:normal;font-size:7.29437447px;line-height:89.99999762%;font-family:'Alegreya Sans SC';-inkscape-font-specification:'Alegreya Sans SC, Medium';text-align:center;writing-mode:lr-tb;text-anchor:middle"
         id="path5020"
         inkscape:connector-curvature="0" />
      <path
         d="m 291.83995,620.40843 -0.0584,0.53249 -2.34149,0 0.0292,-1.09416 -0.0292,-2.56032 2.36338,0 0.0438,0.0584 -0.0511,0.53249 -0.92638,-0.0365 -0.72944,0.007 -0.0146,0.94827 0.70026,0.007 0.63461,-0.0219 0.0365,0.0584 -0.0438,0.53978 -0.68567,-0.0219 -0.6492,0.007 -0.007,0.41578 0.0146,0.59814 0.67838,0.007 0.98474,-0.0292 0.0511,0.0511 z"
         style="font-style:normal;font-variant:normal;font-weight:500;font-stretch:normal;font-size:7.29437447px;line-height:89.99999762%;font-family:'Alegreya Sans SC';-inkscape-font-specification:'Alegreya Sans SC, Medium';text-align:center;writing-mode:lr-tb;text-anchor:middle"
         id="path5022"
         inkscape:connector-curvature="0" />
      <path
         d="m 295.07398,620.40843 -0.0584,0.53249 -2.34149,0 0.0292,-1.09416 -0.0292,-2.56032 2.36338,0 0.0438,0.0584 -0.0511,0.53249 -0.92638,-0.0365 -0.72944,0.007 -0.0146,0.94827 0.70026,0.007 0.63461,-0.0219 0.0365,0.0584 -0.0438,0.53978 -0.68567,-0.0219 -0.6492,0.007 -0.007,0.41578 0.0146,0.59814 0.67838,0.007 0.98474,-0.0292 0.0511,0.0511 z"
         style="font-style:normal;font-variant:normal;font-weight:500;font-stretch:normal;font-size:7.29437447px;line-height:89.99999762%;font-family:'Alegreya Sans SC';-inkscape-font-specification:'Alegreya Sans SC, Medium';text-align:center;writing-mode:lr-tb;text-anchor:middle"
         id="path5024"
         inkscape:connector-curvature="0" />
      <path
         d="m 297.7974,619.48204 q 0.42308,0.63461 0.95556,1.29111 l -0.007,0.0875 q -0.37931,0.10942 -0.66379,0.1313 l -0.10941,-0.0657 q -0.53249,-0.86074 -0.75132,-1.25463 l -0.64191,0.007 0,0.10212 0.0292,1.15981 -0.70026,0 0.0292,-1.09416 -0.0292,-2.56032 1.38593,-0.007 q 0.59084,0 0.9118,0.28448 0.32824,0.27719 0.32824,0.7878 0,0.35742 -0.19694,0.64919 -0.18966,0.29178 -0.53979,0.48143 z m -0.57625,-0.34283 q 0.57625,-0.16777 0.57625,-0.72215 0,-0.29906 -0.17506,-0.43766 -0.17507,-0.14589 -0.53249,-0.16047 l -0.48143,0.0146 -0.0219,1.28381 0.63461,0.0219 z"
         style="font-style:normal;font-variant:normal;font-weight:500;font-stretch:normal;font-size:7.29437447px;line-height:89.99999762%;font-family:'Alegreya Sans SC';-inkscape-font-specification:'Alegreya Sans SC, Medium';text-align:center;writing-mode:lr-tb;text-anchor:middle"
         id="path5026"
         inkscape:connector-curvature="0" />
      <path
         d="m 300.5573,619.21945 -1.75065,0.26259 -0.0657,-0.0657 0,-0.46684 1.75065,-0.2553 0.0657,0.0584 0,0.46684 z"
         style="font-style:normal;font-variant:normal;font-weight:500;font-stretch:normal;font-size:7.29437447px;line-height:89.99999762%;font-family:'Alegreya Sans SC';-inkscape-font-specification:'Alegreya Sans SC, Medium';text-align:center;writing-mode:lr-tb;text-anchor:middle"
         id="path5028"
         inkscape:connector-curvature="0" />
      <path
         d="m 302.55333,617.24267 q 0.46684,0 0.93368,0.18236 l -0.10941,0.66379 -0.10942,0.0219 q -0.42307,-0.33554 -0.80238,-0.33554 -0.26989,0 -0.43037,0.13859 -0.15318,0.1386 -0.15318,0.32096 0,0.18235 0.16048,0.30636 0.16777,0.11671 0.5179,0.2626 0.32825,0.13859 0.52519,0.26259 0.20425,0.11671 0.35013,0.31366 0.14589,0.19695 0.14589,0.48872 0,0.29907 -0.16048,0.55438 -0.15318,0.2553 -0.46684,0.41578 -0.30636,0.15318 -0.74402,0.15318 -0.57626,0 -1.11604,-0.23342 l 0.0948,-0.70756 0.0802,-0.0438 q 0.21154,0.21153 0.49602,0.33554 0.29178,0.11671 0.53249,0.11671 0.2626,0 0.42307,-0.1313 0.16778,-0.13859 0.16778,-0.33554 0,-0.19695 -0.16778,-0.31366 -0.16777,-0.124 -0.5179,-0.26989 -0.31365,-0.13859 -0.5179,-0.2553 -0.20424,-0.12401 -0.35013,-0.32096 -0.13859,-0.20424 -0.13859,-0.49601 0,-0.30637 0.16048,-0.55438 0.16777,-0.248 0.47413,-0.39389 0.31366,-0.14589 0.72214,-0.14589 z"
         style="font-style:normal;font-variant:normal;font-weight:500;font-stretch:normal;font-size:7.29437447px;line-height:89.99999762%;font-family:'Alegreya Sans SC';-inkscape-font-specification:'Alegreya Sans SC, Medium';text-align:center;writing-mode:lr-tb;text-anchor:middle"
         id="path5030"
         inkscape:connector-curvature="0" />
      <path
         d="m 306.7957,620.94092 -0.0948,-0.45225 -0.1313,-0.40119 -0.81697,-0.007 -0.72944,0.007 -0.13859,0.36471 -0.10212,0.48873 -0.69297,0 1.36405,-3.65448 0.81697,0 1.23275,3.65448 -0.70755,0 z m -0.92639,-2.99799 -0.0511,0 -0.59084,1.59747 0.57625,0.007 0.58355,-0.007 -0.5179,-1.59747 z"
         style="font-style:normal;font-variant:normal;font-weight:500;font-stretch:normal;font-size:7.29437447px;line-height:89.99999762%;font-family:'Alegreya Sans SC';-inkscape-font-specification:'Alegreya Sans SC, Medium';text-align:center;writing-mode:lr-tb;text-anchor:middle"
         id="path5032"
         inkscape:connector-curvature="0" />
      <path
         d="m 308.92702,620.94092 -1.23275,-3.65448 0.71485,0 0.10212,0.45954 0.83156,2.53115 0.0365,0 0.93368,-2.49468 0.10212,-0.49601 0.69297,0 -1.34217,3.65448 -0.83885,0 z"
         style="font-style:normal;font-variant:normal;font-weight:500;font-stretch:normal;font-size:7.29437447px;line-height:89.99999762%;font-family:'Alegreya Sans SC';-inkscape-font-specification:'Alegreya Sans SC, Medium';text-align:center;writing-mode:lr-tb;text-anchor:middle"
         id="path5034"
         inkscape:connector-curvature="0" />
      <path
         d="m 312.53637,620.94092 -0.70026,0 0.0292,-1.09416 -0.0292,-2.56032 0.70755,0 -0.0365,2.49467 0.0292,1.15981 z"
         style="font-style:normal;font-variant:normal;font-weight:500;font-stretch:normal;font-size:7.29437447px;line-height:89.99999762%;font-family:'Alegreya Sans SC';-inkscape-font-specification:'Alegreya Sans SC, Medium';text-align:center;writing-mode:lr-tb;text-anchor:middle"
         id="path5036"
         inkscape:connector-curvature="0" />
      <path
         d="m 316.93909,620.94092 -0.75861,0 -1.72877,-2.56762 -0.0438,0 -0.007,1.32757 0.0219,1.24005 -0.63462,0 0.0292,-1.07228 -0.0219,-2.5822 0.74403,0 1.72876,2.56762 0.0584,0 -0.0219,-2.54574 0.6492,-0.0365 -0.0365,2.55303 0.0219,1.11604 z"
         style="font-style:normal;font-variant:normal;font-weight:500;font-stretch:normal;font-size:7.29437447px;line-height:89.99999762%;font-family:'Alegreya Sans SC';-inkscape-font-specification:'Alegreya Sans SC, Medium';text-align:center;writing-mode:lr-tb;text-anchor:middle"
         id="path5038"
         inkscape:connector-curvature="0" />
      <path
         d="m 319.81752,617.24267 q 0.56896,0 1.15251,0.22613 l -0.21153,0.66378 -0.073,0 q -0.27718,-0.16777 -0.50331,-0.24071 -0.21883,-0.0729 -0.48872,-0.0729 -0.56896,0 -0.83885,0.32095 -0.2699,0.31366 -0.2699,1.02121 0,0.68567 0.25531,0.97745 0.2553,0.28448 0.83885,0.28448 0.27719,0 0.63461,-0.1313 l 0,-0.30637 -0.007,-0.54707 0.6419,-0.0438 -0.007,0.48143 0,0.88991 q -0.74403,0.22613 -1.2984,0.22613 -0.88992,0 -1.34217,-0.46684 -0.45225,-0.46684 -0.45225,-1.33487 0,-0.94098 0.51061,-1.44429 0.5179,-0.50331 1.45887,-0.50331 z"
         style="font-style:normal;font-variant:normal;font-weight:500;font-stretch:normal;font-size:7.29437447px;line-height:89.99999762%;font-family:'Alegreya Sans SC';-inkscape-font-specification:'Alegreya Sans SC, Medium';text-align:center;writing-mode:lr-tb;text-anchor:middle"
         id="path5040"
         inkscape:connector-curvature="0" />
      <path
         d="m 278.12003,623.80761 q 0.46684,0 0.93368,0.18236 l -0.10942,0.66378 -0.10941,0.0219 q -0.42308,-0.33554 -0.80238,-0.33554 -0.2699,0 -0.43037,0.13859 -0.15318,0.13859 -0.15318,0.32095 0,0.18236 0.16047,0.30637 0.16777,0.11671 0.5179,0.26259 0.32825,0.1386 0.5252,0.2626 0.20424,0.11671 0.35013,0.31366 0.14589,0.19695 0.14589,0.48872 0,0.29907 -0.16048,0.55437 -0.15318,0.25531 -0.46684,0.41578 -0.30636,0.15319 -0.74403,0.15319 -0.57625,0 -1.11604,-0.23342 l 0.0948,-0.70756 0.0802,-0.0438 q 0.21154,0.21154 0.49602,0.33555 0.29177,0.11671 0.53249,0.11671 0.26259,0 0.42307,-0.1313 0.16777,-0.1386 0.16777,-0.33554 0,-0.19695 -0.16777,-0.31366 -0.16777,-0.12401 -0.5179,-0.26989 -0.31366,-0.1386 -0.5179,-0.25531 -0.20424,-0.124 -0.35013,-0.32095 -0.13859,-0.20424 -0.13859,-0.49602 0,-0.30636 0.16047,-0.55437 0.16777,-0.24801 0.47414,-0.3939 0.31365,-0.14588 0.72214,-0.14588 z"
         style="font-style:normal;font-variant:normal;font-weight:500;font-stretch:normal;font-size:7.29437447px;line-height:89.99999762%;font-family:'Alegreya Sans SC';-inkscape-font-specification:'Alegreya Sans SC, Medium';text-align:center;writing-mode:lr-tb;text-anchor:middle"
         id="path5042"
         inkscape:connector-curvature="0" />
      <path
         d="m 281.60378,623.80031 q 0.80238,0 1.24004,0.47414 0.44496,0.46684 0.44496,1.32028 0,0.94827 -0.47414,1.45887 -0.46684,0.51061 -1.33487,0.51061 -0.80967,0 -1.24734,-0.48143 -0.43766,-0.48143 -0.43766,-1.36405 0,-0.91909 0.46684,-1.41511 0.47414,-0.50331 1.34217,-0.50331 z m -0.0656,0.57626 q -0.5252,0 -0.77321,0.29907 -0.24071,0.29177 -0.24071,0.95556 0,0.73673 0.24071,1.05039 0.24072,0.31366 0.76591,0.31366 0.53249,0 0.7805,-0.29178 0.24801,-0.29907 0.24801,-0.97015 0,-0.72944 -0.24071,-1.04309 -0.24072,-0.31366 -0.7805,-0.31366 z"
         style="font-style:normal;font-variant:normal;font-weight:500;font-stretch:normal;font-size:7.29437447px;line-height:89.99999762%;font-family:'Alegreya Sans SC';-inkscape-font-specification:'Alegreya Sans SC, Medium';text-align:center;writing-mode:lr-tb;text-anchor:middle"
         id="path5044"
         inkscape:connector-curvature="0" />
      <path
         d="m 286.18897,627.50585 -2.02783,0 0.0292,-1.09415 -0.0292,-2.56033 0.71485,0 -0.0365,2.49468 0.007,0.57625 1.34946,0 0.0438,0.0584 -0.0511,0.52519 z"
         style="font-style:normal;font-variant:normal;font-weight:500;font-stretch:normal;font-size:7.29437447px;line-height:89.99999762%;font-family:'Alegreya Sans SC';-inkscape-font-specification:'Alegreya Sans SC, Medium';text-align:center;writing-mode:lr-tb;text-anchor:middle"
         id="path5046"
         inkscape:connector-curvature="0" />
      <path
         d="m 288.47804,623.8222 q 0.83885,0 1.28381,0.44495 0.45225,0.44496 0.45225,1.27652 0,0.97015 -0.49602,1.48805 -0.49601,0.51061 -1.4151,0.51061 -0.69297,0 -1.32758,-0.0365 l 0.0292,-1.09415 -0.0292,-2.56033 1.50264,-0.0292 z m -0.0584,3.17305 q 1.07227,0 1.07227,-1.29111 0,-0.67837 -0.2626,-0.98474 -0.2626,-0.31365 -0.80238,-0.31365 -0.45225,0 -0.75132,0.0292 l -0.0292,1.91113 0.0146,0.59814 q 0.54708,0.0511 0.75862,0.0511 z"
         style="font-style:normal;font-variant:normal;font-weight:500;font-stretch:normal;font-size:7.29437447px;line-height:89.99999762%;font-family:'Alegreya Sans SC';-inkscape-font-specification:'Alegreya Sans SC, Medium';text-align:center;writing-mode:lr-tb;text-anchor:middle"
         id="path5048"
         inkscape:connector-curvature="0" />
      <path
         d="m 293.50683,626.97337 -0.0584,0.53248 -2.34149,0 0.0292,-1.09415 -0.0292,-2.56033 2.36338,0 0.0438,0.0584 -0.0511,0.53249 -0.92638,-0.0365 -0.72944,0.007 -0.0146,0.94827 0.70026,0.007 0.63461,-0.0219 0.0365,0.0584 -0.0438,0.53979 -0.68567,-0.0219 -0.6492,0.007 -0.007,0.41578 0.0146,0.59814 0.67838,0.007 0.98474,-0.0292 0.0511,0.0511 z"
         style="font-style:normal;font-variant:normal;font-weight:500;font-stretch:normal;font-size:7.29437447px;line-height:89.99999762%;font-family:'Alegreya Sans SC';-inkscape-font-specification:'Alegreya Sans SC, Medium';text-align:center;writing-mode:lr-tb;text-anchor:middle"
         id="path5050"
         inkscape:connector-curvature="0" />
      <path
         d="m 296.23025,626.04698 q 0.42308,0.63461 0.95557,1.2911 l -0.007,0.0875 q -0.37931,0.10941 -0.66379,0.1313 l -0.10941,-0.0657 q -0.53249,-0.86074 -0.75132,-1.25464 l -0.64191,0.007 0,0.10212 0.0292,1.1598 -0.70026,0 0.0292,-1.09415 -0.0292,-2.56033 1.38593,-0.007 q 0.59084,0 0.9118,0.28448 0.32824,0.27719 0.32824,0.78779 0,0.35743 -0.19694,0.6492 -0.18966,0.29178 -0.53979,0.48143 z m -0.57625,-0.34284 q 0.57625,-0.16777 0.57625,-0.72214 0,-0.29907 -0.17506,-0.43766 -0.17507,-0.14589 -0.53249,-0.16048 l -0.48143,0.0146 -0.0219,1.28381 0.63461,0.0219 z"
         style="font-style:normal;font-variant:normal;font-weight:500;font-stretch:normal;font-size:7.29437447px;line-height:89.99999762%;font-family:'Alegreya Sans SC';-inkscape-font-specification:'Alegreya Sans SC, Medium';text-align:center;writing-mode:lr-tb;text-anchor:middle"
         id="path5052"
         inkscape:connector-curvature="0" />
      <path
         d="m 298.74544,627.50585 -0.70026,0 0.0292,-1.09415 -0.0292,-2.56033 0.70756,0 -0.0365,2.49468 0.0292,1.1598 z"
         style="font-style:normal;font-variant:normal;font-weight:500;font-stretch:normal;font-size:7.29437447px;line-height:89.99999762%;font-family:'Alegreya Sans SC';-inkscape-font-specification:'Alegreya Sans SC, Medium';text-align:center;writing-mode:lr-tb;text-anchor:middle"
         id="path5054"
         inkscape:connector-curvature="0" />
      <path
         d="m 303.14817,627.50585 -0.75862,0 -1.72876,-2.56761 -0.0438,0 -0.007,1.32757 0.0219,1.24004 -0.63461,0 0.0292,-1.07227 -0.0219,-2.58221 0.74403,0 1.72877,2.56762 0.0584,0 -0.0219,-2.54573 0.6492,-0.0365 -0.0365,2.55304 0.0219,1.11603 z"
         style="font-style:normal;font-variant:normal;font-weight:500;font-stretch:normal;font-size:7.29437447px;line-height:89.99999762%;font-family:'Alegreya Sans SC';-inkscape-font-specification:'Alegreya Sans SC, Medium';text-align:center;writing-mode:lr-tb;text-anchor:middle"
         id="path5056"
         inkscape:connector-curvature="0" />
      <path
         d="m 306.0266,623.80761 q 0.56896,0 1.15251,0.22612 l -0.21154,0.66379 -0.0729,0 q -0.27719,-0.16777 -0.50332,-0.24071 -0.21883,-0.0729 -0.48872,-0.0729 -0.56896,0 -0.83885,0.32096 -0.26989,0.31365 -0.26989,1.02121 0,0.68567 0.2553,0.97744 0.2553,0.28448 0.83885,0.28448 0.27719,0 0.63461,-0.13129 l 0,-0.30637 -0.007,-0.54708 0.6419,-0.0438 -0.007,0.48143 0,0.88991 q -0.74403,0.22613 -1.2984,0.22613 -0.88991,0 -1.34216,-0.46684 -0.45225,-0.46684 -0.45225,-1.33488 0,-0.94097 0.5106,-1.44428 0.5179,-0.50331 1.45888,-0.50331 z"
         style="font-style:normal;font-variant:normal;font-weight:500;font-stretch:normal;font-size:7.29437447px;line-height:89.99999762%;font-family:'Alegreya Sans SC';-inkscape-font-specification:'Alegreya Sans SC, Medium';text-align:center;writing-mode:lr-tb;text-anchor:middle"
         id="path5058"
         inkscape:connector-curvature="0" />
      <path
         d="m 310.80145,625.56555 q 0.69296,0.89721 1.5537,1.77983 l -0.0146,0.10212 q -0.34284,0.0875 -0.68567,0.124 l -0.10212,-0.0438 q -0.9118,-1.09416 -1.50264,-1.91842 l 0,-0.0511 1.17439,-1.36405 0.23342,-0.34284 0.80238,-0.007 -1.45887,1.72147 z m -0.74403,1.9403 -0.70026,0 0.0292,-1.09415 -0.0292,-2.56033 0.70755,0 -0.0365,2.49468 0.0292,1.1598 z"
         style="font-style:normal;font-variant:normal;font-weight:500;font-stretch:normal;font-size:7.29437447px;line-height:89.99999762%;font-family:'Alegreya Sans SC';-inkscape-font-specification:'Alegreya Sans SC, Medium';text-align:center;writing-mode:lr-tb;text-anchor:middle"
         id="path5060"
         inkscape:connector-curvature="0" />
      <path
         d="m 313.7331,627.50585 -0.70026,0 0.0292,-1.09415 -0.0292,-2.56033 0.70756,0 -0.0365,2.49468 0.0292,1.1598 z"
         style="font-style:normal;font-variant:normal;font-weight:500;font-stretch:normal;font-size:7.29437447px;line-height:89.99999762%;font-family:'Alegreya Sans SC';-inkscape-font-specification:'Alegreya Sans SC, Medium';text-align:center;writing-mode:lr-tb;text-anchor:middle"
         id="path5062"
         inkscape:connector-curvature="0" />
      <path
         d="m 317.34804,624.4714 -0.70756,-0.0511 -0.30636,0 -0.0146,1.92572 0.0219,1.1598 -0.70026,0 0.0292,-1.09415 -0.0146,-1.99137 -0.29907,0 -0.72214,0.0511 -0.0511,-0.0584 0.0511,-0.56167 2.7208,0 0.0365,0.0584 -0.0438,0.56167 z"
         style="font-style:normal;font-variant:normal;font-weight:500;font-stretch:normal;font-size:7.29437447px;line-height:89.99999762%;font-family:'Alegreya Sans SC';-inkscape-font-specification:'Alegreya Sans SC, Medium';text-align:center;writing-mode:lr-tb;text-anchor:middle"
         id="path5064"
         inkscape:connector-curvature="0" />
    </g>
    <g
       style="font-style:normal;font-weight:normal;font-size:12.94248199px;line-height:80.00000119%;font-family:sans-serif;letter-spacing:0px;word-spacing:0px;fill:#000000;fill-opacity:1;stroke:none;stroke-width:1px;stroke-linecap:butt;stroke-linejoin:miter;stroke-opacity:1"
       id="text4919"
       transform="translate(-6,0)">
      <path
         d="m 282.45774,481.8975 -1.44956,-0.0777 -0.84126,0 -0.0388,4.87931 0.0388,2.5885 -1.04834,0 0.0777,-2.4979 -0.0647,-4.96991 -0.84126,0 -1.47544,0.0777 -0.0647,-0.10354 0.0777,-0.80243 5.62998,0 0.0777,0.10354 -0.0777,0.80243 z"
         style="font-style:normal;font-variant:normal;font-weight:normal;font-stretch:normal;font-size:12.94248199px;line-height:64.99999762%;font-family:'Alegreya Sans SC';-inkscape-font-specification:'Alegreya Sans SC, Normal';text-align:center;writing-mode:lr-tb;text-anchor:middle"
         id="path4999"
         inkscape:connector-curvature="0" />
      <path
         d="m 289.35912,489.28766 -0.95775,0 0.0388,-1.94137 -0.0129,-0.88009 -3.50741,0.0129 -0.0129,0.78949 0.0259,2.01903 -0.95775,0 0.0388,-1.94137 -0.0388,-4.50399 0.97069,0 -0.0259,2.76969 1.74723,0.0129 1.76018,-0.0129 -0.0259,-2.76969 0.97069,0 -0.0388,4.42633 0.0259,2.01903 z"
         style="font-style:normal;font-variant:normal;font-weight:normal;font-stretch:normal;font-size:12.94248199px;line-height:64.99999762%;font-family:'Alegreya Sans SC';-inkscape-font-specification:'Alegreya Sans SC, Normal';text-align:center;writing-mode:lr-tb;text-anchor:middle"
         id="path5001"
         inkscape:connector-curvature="0" />
      <path
         d="m 295.69709,488.53699 -0.0906,0.75067 -3.92157,0 0.0388,-1.94137 -0.0388,-4.50399 3.94746,0 0.0647,0.0777 -0.0777,0.75066 -1.63076,-0.0518 -1.34601,0.0129 -0.0129,1.95432 1.28131,0.0129 1.12599,-0.0388 0.0647,0.0906 -0.0777,0.76361 -1.19071,-0.0388 -1.20365,0.0129 -0.0129,0.88009 0.0129,1.22954 1.26837,0.0129 1.72135,-0.0518 0.0777,0.0777 z"
         style="font-style:normal;font-variant:normal;font-weight:normal;font-stretch:normal;font-size:12.94248199px;line-height:64.99999762%;font-family:'Alegreya Sans SC';-inkscape-font-specification:'Alegreya Sans SC, Normal';text-align:center;writing-mode:lr-tb;text-anchor:middle"
         id="path5003"
         inkscape:connector-curvature="0" />
      <path
         d="m 303.45753,483.73533 -1.20366,-0.0906 -0.64712,0 -0.0388,3.62389 0.0388,2.01903 -0.97069,0 0.0388,-1.94137 -0.0259,-3.70155 -0.64713,0 -1.22953,0.0906 -0.0777,-0.0906 0.0777,-0.80244 4.69812,0 0.0518,0.0777 -0.0647,0.81537 z"
         style="font-style:normal;font-variant:normal;font-weight:normal;font-stretch:normal;font-size:12.94248199px;line-height:64.99999762%;font-family:'Alegreya Sans SC';-inkscape-font-specification:'Alegreya Sans SC, Normal';text-align:center;writing-mode:lr-tb;text-anchor:middle"
         id="path5005"
         inkscape:connector-curvature="0" />
      <path
         d="m 306.06544,489.28766 -0.95775,0 0.0388,-1.94137 -0.0388,-4.50399 0.97069,0 -0.0388,4.42633 0.0259,2.01903 z"
         style="font-style:normal;font-variant:normal;font-weight:normal;font-stretch:normal;font-size:12.94248199px;line-height:64.99999762%;font-family:'Alegreya Sans SC';-inkscape-font-specification:'Alegreya Sans SC, Normal';text-align:center;writing-mode:lr-tb;text-anchor:middle"
         id="path5007"
         inkscape:connector-curvature="0" />
      <path
         d="m 313.82789,489.28766 -1.0354,0 -3.39093,-4.91814 -0.0647,0 -0.0129,2.76969 0.0259,2.14845 -0.88009,0 0.0388,-1.90255 -0.0259,-4.54281 1.02245,0 3.39093,4.91815 0.0906,0 -0.0259,-4.87932 0.89304,-0.0647 -0.0388,4.54281 0.0129,1.92843 z"
         style="font-style:normal;font-variant:normal;font-weight:normal;font-stretch:normal;font-size:12.94248199px;line-height:64.99999762%;font-family:'Alegreya Sans SC';-inkscape-font-specification:'Alegreya Sans SC, Normal';text-align:center;writing-mode:lr-tb;text-anchor:middle"
         id="path5009"
         inkscape:connector-curvature="0" />
      <path
         d="m 318.45746,489.28766 -0.97069,0 0.0388,-1.85078 0,-0.38827 -2.18728,-4.20631 1.04834,0 0.14237,0.37533 1.43661,2.7697 0.0647,0 1.57898,-2.73087 0.18119,-0.41416 1.02246,0 -2.38142,4.19337 -0.0129,0.40121 0.0388,1.85078 z"
         style="font-style:normal;font-variant:normal;font-weight:normal;font-stretch:normal;font-size:12.94248199px;line-height:64.99999762%;font-family:'Alegreya Sans SC';-inkscape-font-specification:'Alegreya Sans SC, Normal';text-align:center;writing-mode:lr-tb;text-anchor:middle"
         id="path5011"
         inkscape:connector-curvature="0" />
    </g>
    <text
       xml:space="preserve"
       style="font-style:normal;font-variant:normal;font-weight:normal;font-stretch:normal;font-size:7.29437447px;line-height:89.99999762%;font-family:'Abyssinica SIL';-inkscape-font-specification:'Abyssinica SIL, Normal';text-align:start;letter-spacing:0px;word-spacing:0px;writing-mode:lr-tb;text-anchor:start;fill:#000000;fill-opacity:1;stroke:none;stroke-width:1px;stroke-linecap:butt;stroke-linejoin:miter;stroke-opacity:1"
       x="339.54105"
       y="543.79803"
       id="text4923"
       sodipodi:linespacing="89.999998%"><tspan
         id="tspan4927"
         sodipodi:role="line"
         x="339.54105"
         y="543.79803"
         style="font-style:normal;font-variant:normal;font-weight:normal;font-stretch:normal;font-size:7.29437447px;line-height:89.99999762%;font-family:'Abyssinica SIL';-inkscape-font-specification:'Abyssinica SIL, Normal';text-align:start;writing-mode:lr-tb;text-anchor:start">White text/graphics </tspan><tspan
         sodipodi:role="line"
         x="339.54105"
         y="550.36298"
         style="font-style:normal;font-variant:normal;font-weight:normal;font-stretch:normal;font-size:7.29437447px;line-height:89.99999762%;font-family:'Abyssinica SIL';-inkscape-font-specification:'Abyssinica SIL, Normal';text-align:start;writing-mode:lr-tb;text-anchor:start"
         id="tspan4931">on clear label,</tspan><tspan
         sodipodi:role="line"
         x="339.54105"
         y="556.92792"
         style="font-style:normal;font-variant:normal;font-weight:normal;font-stretch:normal;font-size:7.29437447px;line-height:89.99999762%;font-family:'Abyssinica SIL';-inkscape-font-specification:'Abyssinica SIL, Normal';text-align:start;writing-mode:lr-tb;text-anchor:start"
         id="tspan6837">permanent gloss,</tspan><tspan
         sodipodi:role="line"
         x="339.54105"
         y="563.49286"
         style="font-style:normal;font-variant:normal;font-weight:normal;font-stretch:normal;font-size:7.29437447px;line-height:89.99999762%;font-family:'Abyssinica SIL';-inkscape-font-specification:'Abyssinica SIL, Normal';text-align:start;writing-mode:lr-tb;text-anchor:start"
         id="tspan6839">on sheets</tspan><tspan
         sodipodi:role="line"
         x="339.54105"
         y="570.0578"
         style="font-style:normal;font-variant:normal;font-weight:normal;font-stretch:normal;font-size:7.29437447px;line-height:89.99999762%;font-family:'Abyssinica SIL';-inkscape-font-specification:'Abyssinica SIL, Normal';text-align:start;writing-mode:lr-tb;text-anchor:start"
         id="tspan4933" /><tspan
         sodipodi:role="line"
         x="339.54105"
         y="576.62274"
         style="font-style:normal;font-variant:normal;font-weight:normal;font-stretch:normal;font-size:7.29437447px;line-height:89.99999762%;font-family:'Abyssinica SIL';-inkscape-font-specification:'Abyssinica SIL, Normal';text-align:start;writing-mode:lr-tb;text-anchor:start"
         id="tspan4935">Qty: 650</tspan><tspan
         sodipodi:role="line"
         x="339.54105"
         y="583.18768"
         style="font-style:normal;font-variant:normal;font-weight:normal;font-stretch:normal;font-size:7.29437447px;line-height:89.99999762%;font-family:'Abyssinica SIL';-inkscape-font-specification:'Abyssinica SIL, Normal';text-align:start;writing-mode:lr-tb;text-anchor:start"
         id="tspan4945" /><tspan
         sodipodi:role="line"
         x="339.54105"
         y="589.75256"
         style="font-style:normal;font-variant:normal;font-weight:normal;font-stretch:normal;font-size:7.29437447px;line-height:89.99999762%;font-family:'Abyssinica SIL';-inkscape-font-specification:'Abyssinica SIL, Normal';text-align:start;writing-mode:lr-tb;text-anchor:start"
         id="tspan4947">Dimension: 24x48 mm each</tspan><tspan
         sodipodi:role="line"
         x="339.54105"
         y="596.3175"
         style="font-style:normal;font-variant:normal;font-weight:normal;font-stretch:normal;font-size:7.29437447px;line-height:89.99999762%;font-family:'Abyssinica SIL';-inkscape-font-specification:'Abyssinica SIL, Normal';text-align:start;writing-mode:lr-tb;text-anchor:start"
         id="tspan4941" /><tspan
         sodipodi:role="line"
         x="339.54105"
         y="602.88245"
         style="font-style:normal;font-variant:normal;font-weight:normal;font-stretch:normal;font-size:7.29437447px;line-height:89.99999762%;font-family:'Abyssinica SIL';-inkscape-font-specification:'Abyssinica SIL, Normal';text-align:start;writing-mode:lr-tb;text-anchor:start"
         id="tspan4943" /><tspan
         sodipodi:role="line"
         x="339.54105"
         y="609.44739"
         style="font-style:normal;font-variant:normal;font-weight:normal;font-stretch:normal;font-size:7.29437447px;line-height:89.99999762%;font-family:'Abyssinica SIL';-inkscape-font-specification:'Abyssinica SIL, Normal';text-align:start;writing-mode:lr-tb;text-anchor:start"
         id="tspan4937" /><tspan
         sodipodi:role="line"
         x="339.54105"
         y="616.01233"
         style="font-style:normal;font-variant:normal;font-weight:normal;font-stretch:normal;font-size:7.29437447px;line-height:89.99999762%;font-family:'Abyssinica SIL';-inkscape-font-specification:'Abyssinica SIL, Normal';text-align:start;writing-mode:lr-tb;text-anchor:start"
         id="tspan4939" /></text>
    <rect
       ry="9.959425"
       y="474.22934"
       x="133.52295"
       height="169.75272"
       width="84.713348"
       id="rect4968"
       style="fill:#ffffff;fill-opacity:1;stroke:#000000;stroke-width:0.17716534;stroke-miterlimit:4;stroke-dasharray:none;stroke-opacity:0.98742137" />
    <path
       style="fill:none;fill-rule:evenodd;stroke:#000000;stroke-width:0.87125331;stroke-linecap:butt;stroke-linejoin:miter;stroke-miterlimit:4;stroke-dasharray:none;stroke-opacity:1"
       d="m 124.89285,555.67205 101.60715,0"
       id="path4903"
       inkscape:connector-curvature="0" />
    <path
       inkscape:connector-curvature="0"
       id="path4905"
       d="m 124.89285,608.49921 101.60715,0"
       style="fill:none;fill-rule:evenodd;stroke:#000000;stroke-width:0.87125331;stroke-linecap:butt;stroke-linejoin:miter;stroke-miterlimit:4;stroke-dasharray:none;stroke-opacity:1" />
    <path
       style="fill:none;fill-rule:evenodd;stroke:#000000;stroke-width:0.29041779;stroke-linecap:butt;stroke-linejoin:miter;stroke-miterlimit:4;stroke-dasharray:none;stroke-opacity:1"
       d="m 124.89285,583.67126 101.60715,0"
       id="path4907"
       inkscape:connector-curvature="0" />
    <path
       inkscape:connector-curvature="0"
       id="path4915"
       d="m 124.89285,545.67205 101.60715,0"
       style="fill:none;fill-rule:evenodd;stroke:#000000;stroke-width:0.29041779;stroke-linecap:butt;stroke-linejoin:miter;stroke-miterlimit:4;stroke-dasharray:none;stroke-opacity:1" />
    <path
       inkscape:export-ydpi="1200.2953"
       inkscape:export-xdpi="1200.2953"
       style="font-style:normal;font-variant:normal;font-weight:800;font-stretch:normal;font-size:40px;line-height:125%;font-family:'Alegreya Sans SC';-inkscape-font-specification:'Alegreya Sans SC, Ultra-Bold';text-align:start;letter-spacing:0px;word-spacing:0px;writing-mode:lr-tb;text-anchor:start;fill:#000000;fill-opacity:1;stroke:none;stroke-width:1px;stroke-linecap:butt;stroke-linejoin:miter;stroke-opacity:1"
       d="m 151.72091,577.85007 -4.07803,0.0164 0.0423,2.1323 2.50232,-0.0385 0.007,-0.31201 0.51348,0 c 0.70641,0 1.19367,0.0859 1.46125,0.25713 0.27828,0.17125 0.41705,0.47602 0.41705,0.91485 0,0.38532 -0.0908,0.69008 -0.27281,0.91485 -0.17125,0.22477 -0.43884,0.39077 -0.80275,0.4978 l -1.38051,-0.0643 0.0102,-0.38413 -2.42001,0.0376 0.0487,2.44196 2.32436,-0.036 0.005,-0.27672 1.68546,-0.0321 c 0.42813,0.0963 0.74441,0.24582 0.94777,0.44919 0.20337,0.19266 0.30496,0.45526 0.30496,0.78706 0,0.43884 -0.16103,0.7758 -0.48213,1.01128 -0.3211,0.23548 -0.77038,0.35277 -1.34836,0.35277 -0.16055,0 -0.51898,-0.0206 -1.07555,-0.0635 l -0.0125,-0.40451 -2.37531,0.0369 -0.10035,2.13309 0.0157,0 c 0.974,0.0643 1.99642,0.0964 3.06676,0.0964 3.29661,0 4.94505,-1.01664 4.94505,-3.05029 0,-0.64219 -0.16102,-1.15588 -0.48213,-1.54121 -0.32109,-0.39602 -0.82904,-0.67931 -1.52475,-0.85057 0.50306,-0.23547 0.88794,-0.55673 1.15552,-0.96345 0.27828,-0.41742 0.41783,-0.89893 0.41783,-1.44479 0,-0.84557 -0.31051,-1.49383 -0.93131,-1.94337 -0.62078,-0.44954 -1.48218,-0.67418 -2.58462,-0.67418 z m 8.62405,2.07115 c -1.35932,0 -2.40819,0.3799 -3.14671,1.13984 -0.73853,0.75993 -1.1077,1.83027 -1.1077,3.21099 0,1.30581 0.33697,2.31749 1.01128,3.0346 0.68501,0.71713 1.64799,1.07556 2.88957,1.07556 1.35932,0 2.40819,-0.38488 3.14672,-1.15551 0.73852,-0.78134 1.10848,-1.8789 1.10848,-3.29174 0,-1.27369 -0.34273,-2.25815 -1.02774,-2.95385 -0.67431,-0.70643 -1.63232,-1.05989 -2.8739,-1.05989 z m 29.58564,0 c -1.35932,0 -2.40817,0.3799 -3.1467,1.13984 -0.73853,0.75993 -1.1077,1.83027 -1.1077,3.21099 0,1.30581 0.33697,2.31749 1.01127,3.0346 0.68502,0.71713 1.648,1.07556 2.88958,1.07556 1.35932,0 2.40818,-0.38488 3.14671,-1.15551 0.73853,-0.78134 1.1077,-1.8789 1.1077,-3.29174 0,-1.27369 -0.34194,-2.25815 -1.02696,-2.95385 -0.67429,-0.70643 -1.63231,-1.05989 -2.8739,-1.05989 z m -15.85426,0.0807 -3.77307,0.0643 0.11288,5.76348 -0.11288,2.39178 c 1.16665,0.075 2.23201,0.11289 3.19531,0.11289 1.45564,0 2.56892,-0.38566 3.33956,-1.15631 0.78133,-0.78135 1.17198,-1.89958 1.17198,-3.35523 0,-1.23088 -0.34273,-2.17318 -1.02775,-2.82608 -0.6743,-0.6636 -1.64304,-0.99481 -2.90603,-0.99481 z m 8.27912,0.0478 -3.8695,0.0165 0.1121,5.76349 -0.1121,2.39177 2.40824,0 -0.08,-2.35964 0.722,0 c 0.74924,0 1.40746,-0.13379 1.97473,-0.40137 0.56728,-0.26759 1.00661,-0.64252 1.31701,-1.12416 0.3211,-0.49236 0.48134,-1.05972 0.48134,-1.70192 0,-0.82416 -0.25685,-1.46091 -0.77061,-1.91044 -0.51376,-0.44955 -1.24136,-0.67419 -2.18325,-0.67419 z m 15.79077,0 -3.86871,0.0165 0.1121,5.76349 -0.1121,2.39177 2.40824,0 -0.0964,-2.4882 1.0591,0 c 0.37461,0.77063 0.78671,1.56762 1.23625,2.39178 l 0.33709,0.24145 c 0.73853,-0.0428 1.5206,-0.18734 2.34475,-0.43351 l 0.0321,-0.27282 c -0.79204,-0.99541 -1.44031,-1.87329 -1.94336,-2.63322 0.46025,-0.2997 0.81946,-0.6639 1.07635,-1.09203 0.25686,-0.42813 0.3849,-0.88815 0.3849,-1.3805 0,-0.80275 -0.25685,-1.41803 -0.7706,-1.84617 -0.51377,-0.43883 -1.24713,-0.6585 -2.19972,-0.6585 z m -33.43868,0.0165 0.11288,5.76349 -0.11288,2.39177 4.99365,0 0.14424,-1.81402 -0.12856,-0.1607 -2.66537,0 -0.0321,-0.65772 0.14503,-5.52282 -2.45685,0 z m 36.92562,0 -0.14503,1.79756 0.1607,0.17718 1.73406,-0.0964 0.28928,0 0.0634,3.88518 -0.1121,2.39177 2.40824,0 -0.0964,-2.63244 0.0643,-3.64451 0.28927,0 1.70191,0.0964 0.14426,-1.79836 -0.12856,-0.17638 -6.37339,0 z m -51.45661,0.32063 -2.48272,0.0385 0.0188,0.9705 2.43882,-0.0376 0.0251,-0.97129 z m 31.34401,1.36483 c 0.43884,0.0214 0.75433,0.12299 0.94698,0.30494 0.20338,0.17126 0.30497,0.44461 0.30497,0.81922 0,0.3318 -0.0694,0.59938 -0.20854,0.80275 -0.13914,0.20336 -0.35881,0.3636 -0.65851,0.48133 l -1.07555,-0.0487 0.0643,-2.31182 0.62637,-0.0478 z m 15.79077,0 c 0.43884,0.0214 0.75511,0.11225 0.94778,0.27281 0.20336,0.16055 0.30494,0.41739 0.30494,0.7706 0,0.59938 -0.28406,1.00652 -0.85135,1.22058 l -1.07555,-0.0643 0.0487,-2.1519 0.62558,-0.0478 z m -37.19137,0.0964 c 0.41743,0 0.73869,0.0751 0.96346,0.22499 0.23547,0.14985 0.40146,0.41167 0.4978,0.78628 0.0963,0.37462 0.14424,0.90482 0.14424,1.58982 0,0.55658 -0.0479,0.9844 -0.14424,1.28409 -0.0963,0.29969 -0.2516,0.5136 -0.46566,0.64204 -0.21407,0.11773 -0.51883,0.17638 -0.91485,0.17638 -0.40673,0 -0.72301,-0.0744 -0.94778,-0.2242 -0.22477,-0.14985 -0.39077,-0.4067 -0.4978,-0.77062 -0.0963,-0.3746 -0.14424,-0.90977 -0.14424,-1.60548 0,-0.54588 0.0479,-0.96871 0.14424,-1.26841 0.0963,-0.3104 0.25159,-0.5243 0.46566,-0.64203 0.21407,-0.12846 0.51386,-0.19286 0.89917,-0.19286 z m 29.58565,0 c 0.41743,0 0.73868,0.0751 0.96345,0.22499 0.23548,0.14985 0.40147,0.41167 0.4978,0.78628 0.0963,0.37462 0.14424,0.90482 0.14424,1.58982 0,0.55658 -0.0479,0.9844 -0.14424,1.28409 -0.0963,0.29969 -0.25159,0.5136 -0.46566,0.64204 -0.21407,0.11773 -0.51961,0.17638 -0.91563,0.17638 -0.40672,0 -0.72222,-0.0744 -0.94699,-0.2242 -0.22478,-0.14985 -0.39077,-0.4067 -0.4978,-0.77062 -0.0963,-0.3746 -0.14425,-0.90977 -0.14425,-1.60548 0,-0.54588 0.0479,-0.96871 0.14425,-1.26841 0.0963,-0.3104 0.25159,-0.5243 0.46566,-0.64203 0.21406,-0.12846 0.51385,-0.19286 0.89917,-0.19286 z m -15.83781,0.0643 c 0.58868,0 1.00576,0.18746 1.25194,0.56207 0.25688,0.37461 0.38569,1.01634 0.38569,1.92612 0,1.41285 -0.52443,2.11898 -1.57335,2.11898 -0.3532,0 -0.78182,-0.0371 -1.28487,-0.1121 l -0.0313,-0.81843 0.0956,-3.62883 c 0.41743,-0.032 0.80309,-0.0478 1.1563,-0.0478 z m -23.78062,2.74219 -2.30947,0.036 0.009,0.46487 -0.0235,0.50565 2.3416,-0.036 -0.0219,-0.7267 0.004,-0.24381 z"
       id="path4970"
       inkscape:connector-curvature="0" />
    <text
       sodipodi:linespacing="80.000001%"
       id="text4972"
       y="491.40588"
       x="177.18341"
       style="font-style:normal;font-weight:normal;font-size:16.23038292px;line-height:80.00000119%;font-family:sans-serif;letter-spacing:0px;word-spacing:0px;fill:#000000;fill-opacity:1;stroke:none;stroke-width:1px;stroke-linecap:butt;stroke-linejoin:miter;stroke-opacity:1"
       xml:space="preserve"><tspan
         style="font-style:normal;font-variant:normal;font-weight:normal;font-stretch:normal;font-size:16.23038292px;line-height:64.99999762%;font-family:'Alegreya Sans SC';-inkscape-font-specification:'Alegreya Sans SC, Normal';text-align:center;writing-mode:lr-tb;text-anchor:middle"
         y="491.40588"
         x="177.18341"
         id="tspan4974"
         sodipodi:role="line" /><tspan
         style="font-style:normal;font-variant:normal;font-weight:bold;font-stretch:normal;font-size:16.23038292px;line-height:80.00000119%;font-family:'Alegreya Sans SC';-inkscape-font-specification:'Alegreya Sans SC, Bold';text-align:center;writing-mode:lr-tb;text-anchor:middle"
         id="tspan4976"
         y="503.78156"
         x="178.40385"
         sodipodi:role="line">Engineer </tspan><tspan
         id="tspan4978"
         style="font-style:normal;font-variant:normal;font-weight:bold;font-stretch:normal;font-size:16.23038292px;line-height:80.00000119%;font-family:'Alegreya Sans SC';-inkscape-font-specification:'Alegreya Sans SC, Bold';text-align:center;writing-mode:lr-tb;text-anchor:middle"
         y="516.76587"
         x="177.18341"
         sodipodi:role="line">Superhero</tspan></text>
    <text
       xml:space="preserve"
       style="font-style:normal;font-weight:normal;font-size:12.94248199px;line-height:80.00000119%;font-family:sans-serif;letter-spacing:0px;word-spacing:0px;fill:#000000;fill-opacity:1;stroke:none;stroke-width:1px;stroke-linecap:butt;stroke-linejoin:miter;stroke-opacity:1"
       x="176.79874"
       y="529.28766"
       id="text4980"
       sodipodi:linespacing="80.000001%"><tspan
         sodipodi:role="line"
         x="176.79874"
         y="529.28766"
         style="font-style:normal;font-variant:normal;font-weight:normal;font-stretch:normal;font-size:12.94248199px;line-height:64.99999762%;font-family:'Alegreya Sans SC';-inkscape-font-specification:'Alegreya Sans SC, Normal';text-align:center;writing-mode:lr-tb;text-anchor:middle"
         id="tspan4982">emergency kit</tspan></text>
    <text
       sodipodi:linespacing="80.000001%"
       id="text4984"
       y="636.94092"
       x="176.9696"
       style="font-style:normal;font-weight:normal;font-size:7.29436255px;line-height:80.00000119%;font-family:sans-serif;letter-spacing:0px;word-spacing:0px;fill:#000000;fill-opacity:1;stroke:none;stroke-width:1px;stroke-linecap:butt;stroke-linejoin:miter;stroke-opacity:1"
       xml:space="preserve"><tspan
         id="tspan4986"
         style="font-style:normal;font-variant:normal;font-weight:normal;font-stretch:normal;font-size:7.29436255px;line-height:64.99999762%;font-family:'Alegreya Sans SC';-inkscape-font-specification:'Alegreya Sans SC, Normal';text-align:center;writing-mode:lr-tb;text-anchor:middle"
         y="636.94092"
         x="176.9696"
         sodipodi:role="line">http://boldport.com/ek2</tspan></text>
    <text
       xml:space="preserve"
       style="font-style:normal;font-variant:normal;font-weight:500;font-stretch:normal;font-size:7.29437447px;line-height:89.99999762%;font-family:'Alegreya Sans SC';-inkscape-font-specification:'Alegreya Sans SC, Medium';text-align:center;letter-spacing:0px;word-spacing:0px;writing-mode:lr-tb;text-anchor:middle;fill:#000000;fill-opacity:1;stroke:none;stroke-width:1px;stroke-linecap:butt;stroke-linejoin:miter;stroke-opacity:1"
       x="174.9696"
       y="620.94092"
       id="text4988"
       sodipodi:linespacing="89.999998%"><tspan
         sodipodi:role="line"
         x="175.55373"
         y="620.94092"
         style="font-style:normal;font-variant:normal;font-weight:500;font-stretch:normal;font-size:7.29437447px;line-height:89.99999762%;font-family:'Alegreya Sans SC';-inkscape-font-specification:'Alegreya Sans SC, Medium';text-align:center;writing-mode:lr-tb;text-anchor:middle"
         id="tspan4990">A career-saving </tspan><tspan
         id="tspan4992"
         sodipodi:role="line"
         x="175.55373"
         y="627.50586"
         style="font-style:normal;font-variant:normal;font-weight:500;font-stretch:normal;font-size:7.29437447px;line-height:89.99999762%;font-family:'Alegreya Sans SC';-inkscape-font-specification:'Alegreya Sans SC, Medium';text-align:center;writing-mode:lr-tb;text-anchor:middle">soldering kit </tspan></text>
    <text
       sodipodi:linespacing="80.000001%"
       id="text4994"
       y="489.28766"
       x="176.79874"
       style="font-style:normal;font-weight:normal;font-size:12.94248199px;line-height:80.00000119%;font-family:sans-serif;letter-spacing:0px;word-spacing:0px;fill:#000000;fill-opacity:1;stroke:none;stroke-width:1px;stroke-linecap:butt;stroke-linejoin:miter;stroke-opacity:1"
       xml:space="preserve"><tspan
         id="tspan4996"
         style="font-style:normal;font-variant:normal;font-weight:normal;font-stretch:normal;font-size:12.94248199px;line-height:64.99999762%;font-family:'Alegreya Sans SC';-inkscape-font-specification:'Alegreya Sans SC, Normal';text-align:center;writing-mode:lr-tb;text-anchor:middle"
         y="489.28766"
         x="176.79874"
         sodipodi:role="line">The tiny</tspan></text>
  </g>
</svg>
